<?xml version="1.0" encoding="UTF-8"?>
<svg version="1.1" xmlns="http://www.w3.org/2000/svg" width="436" height="328">
<path d="M0 0 C143.88 0 287.76 0 436 0 C436 108.24 436 216.48 436 328 C292.12 328 148.24 328 0 328 C0 219.76 0 111.52 0 0 Z " fill="#FCFDFD" transform="translate(0,0)"/>
<path d="M0 0 C24.84733137 -0.67846105 47.87108375 -0.61894438 72 6 C73.80439176 6.46988711 75.60906123 6.93870966 77.4140625 7.40625 C81.63581331 8.52353834 85.81732036 9.74474295 90 11 C90.95261719 11.26425781 91.90523437 11.52851562 92.88671875 11.80078125 C109.45715066 16.45715066 109.45715066 16.45715066 114 21 C109.56802496 20.58963194 105.59626838 19.94712604 101.36328125 18.5625 C86.1190063 13.90888136 69.8810642 13.7118986 54.0625 13.6875 C52.97813156 13.68225815 52.97813156 13.68225815 51.87185669 13.6769104 C37.15955801 13.63742243 22.68623751 14.81376932 8.4375 18.6875 C7.4671582 18.94732666 6.49681641 19.20715332 5.49707031 19.47485352 C-6.63307641 22.85024228 -17.54338702 27.55474486 -27.9609375 34.71484375 C-30 36 -30 36 -32 36 C-32 36.66 -32 37.32 -32 38 C-34.66238608 39.93628079 -37.236821 41.66080934 -40.25 43 C-42.55102278 44.31487016 -42.87260395 45.61257307 -44 48 C-46.34083088 50.97348788 -48.59314025 53.62526076 -51.375 56.1875 C-69.36512542 75.46263438 -74.72772917 102.69093248 -74.3359375 128.09375 C-74.09535929 134.50916881 -72.85439061 140.18702886 -70.875 146.26953125 C-70 149 -70 149 -70 152 C-69.34 152 -68.68 152 -68 152 C-67.06284078 153.483338 -66.20092526 155.0144669 -65.375 156.5625 C-62.69502159 161.23919501 -59.77094456 164.32825293 -55.5390625 167.625 C-55.03117187 168.07875 -54.52328125 168.5325 -54 169 C-54 169.66 -54 170.32 -54 171 C-51.0782575 172.5114788 -48.12202703 173.79316037 -45.0625 175 C-44.22847656 175.33 -43.39445312 175.66 -42.53515625 176 C-41.69855469 176.33 -40.86195312 176.66 -40 177 C-39.19433594 177.350625 -38.38867188 177.70125 -37.55859375 178.0625 C-15.63280429 186.09637705 13.01548159 179.15913005 34 171 C35.74604233 170.40492526 37.49560234 169.81997071 39.25 169.25 C42.76429774 168.1767767 42.76429774 168.1767767 45 167 C40.65548195 167.74645194 36.55358877 169.06994381 32.375 170.4375 C12.36295054 176.80466064 -13.79022133 180.16295953 -34 173 C-34 172.01 -34 171.02 -34 170 C-32.741875 169.78085938 -31.48375 169.56171875 -30.1875 169.3359375 C-13.39660233 166.28259713 0.631413 161.08936349 15.55078125 152.85546875 C19 151 19 151 22 150 C22 149.34 22 148.68 22 148 C25.19026533 145.67980703 28.41726669 143.65356922 32 142 C32 141.34 32 140.68 32 140 C33.3203125 138.7734375 33.3203125 138.7734375 35.125 137.375 C39.61112761 133.67303291 43.38750564 129.22498872 46 124 C46.66 124 47.32 124 48 124 C48.28617188 123.42765625 48.57234375 122.8553125 48.8671875 122.265625 C50.578125 118.84375 52.2890625 115.421875 54 112 C54.66 112 55.32 112 56 112 C56.66 109.36 57.32 106.72 58 104 C58.66 104 59.32 104 60 104 C60.09796875 103.46375 60.1959375 102.9275 60.296875 102.375 C61.05669058 98.39251832 61.84793573 94.50262464 63.0234375 90.6171875 C67.19864165 76.43333793 69.70439786 57.88030265 62.61328125 44.27734375 C56.09883195 35.081402 46.81048523 30.93158791 36.07421875 28.59375 C27.50911987 27.15625089 18.66449893 27.21115852 10 27 C19.06955624 17.93044376 48.32555489 19.80174262 60.375 19.75 C83.34618027 19.8680524 83.34618027 19.8680524 92.3125 25.046875 C94.74845001 26.42273565 97.33027588 27.19908276 100 28 C100 28.66 100 29.32 100 30 C100.5878125 30.09023437 101.175625 30.18046875 101.78125 30.2734375 C106.93929968 31.96251715 110.54679154 37.98772125 113.25 42.5 C122.75023598 61.50047197 120.72688115 84.50078005 114.25390625 104.27978516 C112.65070324 108.91691029 110.86784181 113.46381274 109 118 C108.33257132 119.66636166 107.66557363 121.33289653 107 123 C106.34 123 105.68 123 105 123 C104.90589844 123.72058594 104.81179687 124.44117188 104.71484375 125.18359375 C103.88661218 128.44673561 102.56457448 130.36948089 100.5625 133.0625 C98.4197929 135.96566682 96.50889426 138.71682807 95 142 C94.34 142 93.68 142 93 142 C92.7628125 142.55171875 92.525625 143.1034375 92.28125 143.671875 C90.68754857 146.56774711 88.71082727 148.79512037 86.5 151.25 C85.7059375 152.14203125 84.911875 153.0340625 84.09375 153.953125 C82 156 82 156 80 156 C80 156.66 80 157.32 80 158 C78.3203125 159.5078125 78.3203125 159.5078125 76.125 161.125 C75.40570313 161.66382813 74.68640625 162.20265625 73.9453125 162.7578125 C72 164 72 164 70 164 C70 164.66 70 165.32 70 166 C67.37585149 168.2268975 64.42907306 170.0377459 61.5625 171.9375 C60.77939453 172.47568359 59.99628906 173.01386719 59.18945312 173.56835938 C53.95349126 177.06331005 49.01055087 179.21835151 43 181 C41.38262318 181.65581946 39.77412032 182.33542167 38.1875 183.0625 C37.12595703 183.54396484 37.12595703 183.54396484 36.04296875 184.03515625 C34.67184931 184.68270214 33.31343587 185.35780554 31.96875 186.05859375 C26.96961766 188.44905187 21.01921318 189.2624585 15.60546875 190.40209961 C13.89773369 190.79398896 12.20135742 191.24012814 10.5234375 191.74462891 C0.24121479 194.62499673 -10.00286968 194.48912544 -20.60961914 194.44604492 C-23.79574475 194.4375447 -26.98006647 194.46636177 -30.16601562 194.49804688 C-42.11211632 194.53804511 -52.57975904 193.58926897 -64 190 C-65.7483901 189.53556324 -67.49802674 189.07573178 -69.25 188.625 C-75.15945053 186.8198948 -80.55950278 183.88851141 -86 181 C-86 180.34 -86 179.68 -86 179 C-86.73863281 178.72671875 -87.47726563 178.4534375 -88.23828125 178.171875 C-102.45308033 172.14013565 -111.52259405 155.57915164 -117.28125 141.90234375 C-119.24785521 136.6972528 -119.78408033 131.51339707 -120 126 C-120.04092773 125.12811035 -120.08185547 124.2562207 -120.12402344 123.35791016 C-120.86237351 105.23172108 -119.53519078 88.27376375 -111 72 C-110.41309542 70.74836736 -109.83145055 69.49426049 -109.25390625 68.23828125 C-104.93369935 58.99383646 -99.94560953 50.53947205 -93 43 C-92.34 43 -91.68 43 -91 43 C-90.731875 42.360625 -90.46375 41.72125 -90.1875 41.0625 C-89 39 -89 39 -86 38 C-84.79117904 35.99983534 -84.79117904 35.99983534 -84 34 C-83.34 34 -82.68 34 -82 34 C-82 33.34 -82 32.68 -82 32 C-81.0925 31.5875 -80.185 31.175 -79.25 30.75 C-76.05493233 29.23756927 -76.05493233 29.23756927 -74.2109375 27.171875 C-71.51794623 24.52646308 -68.54236975 22.52082221 -65.375 20.5 C-64.75471924 20.10417725 -64.13443848 19.70835449 -63.49536133 19.30053711 C-56.44666272 14.90158827 -49.56218596 12.2204618 -41.421875 10.6328125 C-37.37627075 9.57573526 -33.64226384 7.77164683 -29.81640625 6.10546875 C-26.46647229 4.79058482 -23.56278913 4.31669237 -20 4 C-19.67 3.67 -19.34 3.34 -19 3 C-12.64761552 1.94126925 -6.42882667 1.89364074 0 2 C0 1.34 0 0.68 0 0 Z " fill="#03234F" transform="translate(136,66)"/>
<path d="M0 0 C2.2618318 -0.00217693 4.52316661 -0.02037476 6.78491211 -0.03930664 C29.16510086 -0.12481664 29.16510086 -0.12481664 39.09545898 3.18530273 C39.09545898 3.84530273 39.09545898 4.50530273 39.09545898 5.18530273 C37.11545898 5.84530273 35.13545898 6.50530273 33.09545898 7.18530273 C34.08545898 7.68030273 34.08545898 7.68030273 35.09545898 8.18530273 C34.76545898 8.84530273 34.43545898 9.50530273 34.09545898 10.18530273 C33.36327148 10.04092773 32.63108398 9.89655273 31.87670898 9.74780273 C8.14357995 5.67926633 -16.49556076 8.28118676 -39.90454102 13.18530273 C-38.64641602 13.21108398 -37.38829102 13.23686523 -36.09204102 13.26342773 C-21.2918721 13.69641913 -5.16906148 14.19156401 6.09545898 25.18530273 C6.09545898 25.84530273 6.09545898 26.50530273 6.09545898 27.18530273 C6.69874023 27.41991211 7.30202148 27.65452148 7.92358398 27.89624023 C12.02656507 30.33146282 13.38691162 34.51121051 14.65161133 38.97338867 C17.46333758 52.98562182 15.42300635 67.75284389 11.09545898 81.18530273 C10.51118697 83.18502871 9.92772243 85.18499099 9.34545898 87.18530273 C8.93279367 88.51987991 8.51795358 89.85380463 8.09545898 91.18530273 C7.43545898 91.18530273 6.77545898 91.18530273 6.09545898 91.18530273 C5.43545898 93.82530273 4.77545898 96.46530273 4.09545898 99.18530273 C3.43545898 99.18530273 2.77545898 99.18530273 2.09545898 99.18530273 C1.84795898 100.05155273 1.60045898 100.91780273 1.34545898 101.81030273 C0.01745875 105.39590337 -1.59084949 108.14858261 -3.90454102 111.18530273 C-4.56454102 111.18530273 -5.22454102 111.18530273 -5.90454102 111.18530273 C-6.13141602 111.89041992 -6.35829102 112.59553711 -6.59204102 113.32202148 C-8.19749017 116.82438526 -10.29782371 119.16754426 -12.90454102 121.99780273 C-13.79141602 122.97362305 -14.67829102 123.94944336 -15.59204102 124.95483398 C-17.90454102 127.18530273 -17.90454102 127.18530273 -19.90454102 127.18530273 C-19.90454102 127.84530273 -19.90454102 128.50530273 -19.90454102 129.18530273 C-21.58422852 130.69311523 -21.58422852 130.69311523 -23.77954102 132.31030273 C-24.49883789 132.84913086 -25.21813477 133.38795898 -25.95922852 133.94311523 C-27.90454102 135.18530273 -27.90454102 135.18530273 -29.90454102 135.18530273 C-29.90454102 135.84530273 -29.90454102 136.50530273 -29.90454102 137.18530273 C-38.05460309 141.98015677 -46.15238032 146.55603849 -54.90454102 150.18530273 C-55.70375977 150.53206055 -56.50297852 150.87881836 -57.32641602 151.23608398 C-66.47616585 154.91587468 -76.24370996 156.41923751 -85.90454102 158.18530273 C-81.21048486 162.87935889 -72.43014022 162.43315753 -66.11791992 162.46362305 C-65.22250488 162.45427734 -64.32708984 162.44493164 -63.40454102 162.43530273 C-61.97440674 162.42515137 -61.97440674 162.42515137 -60.51538086 162.41479492 C-44.43614382 162.18444103 -28.1900121 160.42028003 -13.15454102 154.37280273 C-9.80808073 153.15005763 -9.10066925 153.16393132 -5.90454102 154.18530273 C-12.17602696 158.26906102 -18.74601698 160.14227265 -25.90454102 162.18530273 C-27.65250977 162.71510742 -27.65250977 162.71510742 -29.43579102 163.25561523 C-31.18375977 163.77768555 -31.18375977 163.77768555 -32.96704102 164.31030273 C-34.53131836 164.77823242 -34.53131836 164.77823242 -36.12719727 165.25561523 C-46.32851391 167.76638396 -56.09973578 168.50064143 -66.59204102 168.43530273 C-67.8456543 168.44303711 -69.09926758 168.45077148 -70.39086914 168.45874023 C-78.63791768 168.44138716 -86.78045612 168.28914129 -94.15454102 164.18530273 C-96.34351627 163.01030608 -98.40142343 161.98654977 -100.71704102 161.06030273 C-102.90454102 160.18530273 -102.90454102 160.18530273 -105.90454102 158.18530273 C-105.90454102 157.52530273 -105.90454102 156.86530273 -105.90454102 156.18530273 C-106.76692383 155.82178711 -106.76692383 155.82178711 -107.64672852 155.45092773 C-112.94722573 152.47971476 -117.07908102 147.14577024 -119.40454102 141.62280273 C-119.56954102 140.81842773 -119.73454102 140.01405273 -119.90454102 139.18530273 C-120.56454102 139.18530273 -121.22454102 139.18530273 -121.90454102 139.18530273 C-131.14124293 113.0586316 -127.98361674 86.43180508 -116.24047852 61.67749023 C-111.36820789 52.26666615 -105.6388555 43.48993308 -97.90454102 36.18530273 C-97.30641602 35.38092773 -96.70829102 34.57655273 -96.09204102 33.74780273 C-93.15224185 30.304038 -89.73576403 27.59847567 -85.90454102 25.18530273 C-85.24454102 25.18530273 -84.58454102 25.18530273 -83.90454102 25.18530273 C-83.90454102 24.52530273 -83.90454102 23.86530273 -83.90454102 23.18530273 C-60.28132975 5.11799932 -28.92863041 -0.00310094 0 0 Z " fill="#FBFCFC" transform="translate(187.904541015625,78.814697265625)"/>
<path d="M0 0 C-0.3741913 5.33222601 -1.25740186 10.11618461 -2.75 15.25 C-5.58293507 25.41341303 -7.12928379 35.80915738 -8.8515625 46.20703125 C-9.54603992 50.35598494 -10.24667213 54.50229803 -11.0234375 58.63671875 C-11.23492432 59.76726685 -11.23492432 59.76726685 -11.45068359 60.9206543 C-12.03784381 63.14325145 -12.95937856 64.95664946 -14 67 C-14.53893476 69.40404405 -15.00975652 71.82370365 -15.4375 74.25 C-15.70050829 75.7083356 -15.96352944 77.16666887 -16.2265625 78.625 C-16.48469284 80.08327711 -16.7425193 81.54160805 -17 83 C-19.0194597 94.28950967 -21.37158437 105.48805221 -23.80126953 116.69628906 C-25.18744376 123.11655571 -26.52391513 129.53563962 -27.6875 136 C-28.65736599 141.35411399 -29.86862754 146.58084657 -31.2421875 151.84375 C-32.33326918 156.38804897 -33.16946539 160.97190214 -33.99804688 165.5703125 C-34.57166425 168.75214588 -35.21507915 171.8603166 -36 175 C-53.82 175 -71.64 175 -90 175 C-90 169.57895257 -89.586465 165.52367939 -88.25 160.4375 C-86.58525864 153.76595092 -85.24097849 147.08619988 -84.0625 140.3125 C-82.56477403 131.76207739 -80.76561329 123.31950623 -78.79418945 114.86669922 C-76.95666285 106.94778341 -75.43865897 99.00011037 -74 91 C-73.67136521 89.33240051 -73.33999002 87.66532149 -73 86 C-76.24849977 87.72226496 -76.24849977 87.72226496 -77 91 C-77.66 91 -78.32 91 -79 91 C-79.66 92.65 -80.32 94.3 -81 96 C-81.66 96 -82.32 96 -83 96 C-83 95.01 -83 94.02 -83 93 C-84.14453199 94.14453199 -85.28842092 95.28971189 -86.4296875 96.4375 C-87.54973359 97.55197372 -88.68126699 98.65495195 -89.8203125 99.75 C-90.43648438 100.348125 -91.05265625 100.94625 -91.6875 101.5625 C-92.26886719 102.12066406 -92.85023438 102.67882812 -93.44921875 103.25390625 C-95.08054457 104.93638675 -95.08054457 104.93638675 -96.015625 107.05078125 C-97.10258174 109.20312812 -98.15973196 110.17571722 -100.0625 111.625 C-103.00824713 113.67119397 -103.00824713 113.67119397 -104 116 C-104.66 116 -105.32 116 -106 116 C-106 116.66 -106 117.32 -106 118 C-106.66 118 -107.32 118 -108 118 C-108.2678833 118.59006836 -108.5357666 119.18013672 -108.81176758 119.78808594 C-110.01173483 122.02184458 -111.26612013 123.56273425 -113.01171875 125.390625 C-113.89633789 126.32551758 -113.89633789 126.32551758 -114.79882812 127.27929688 C-115.42208984 127.92962891 -116.04535156 128.57996094 -116.6875 129.25 C-117.96311164 130.59813372 -119.23786131 131.94708361 -120.51171875 133.296875 C-121.11935059 133.93947266 -121.72698242 134.58207031 -122.35302734 135.24414062 C-124.27641459 137.29468925 -126.15223058 139.38111318 -128 141.5 C-128.51304687 142.0878125 -129.02609375 142.675625 -129.5546875 143.28125 C-130.58704744 144.50892127 -131.58924855 145.76221205 -132.5703125 147.03125 C-133.33988281 148.00578125 -133.33988281 148.00578125 -134.125 149 C-134.56070313 149.5775 -134.99640625 150.155 -135.4453125 150.75 C-137.6269902 152.50411272 -139.2844344 152.21943964 -142 152 C-142.83848804 150.54462432 -143.67063934 149.08559627 -144.5 147.625 C-144.9640625 146.81289062 -145.428125 146.00078125 -145.90625 145.1640625 C-147 143 -147 143 -147 141 C-147.66 141 -148.32 141 -149 141 C-149.27150879 140.44650879 -149.54301758 139.89301758 -149.82275391 139.32275391 C-156.42177431 125.72111559 -156.42177431 125.72111559 -164.0390625 112.6796875 C-165 111 -165 111 -165 109 C-165.66 109 -166.32 109 -167 109 C-167.32871094 108.18208984 -167.32871094 108.18208984 -167.6640625 107.34765625 C-169.86887115 102.10451373 -172.43062904 97.73204838 -175.92578125 93.23828125 C-178.134162 88.63681882 -175.65770529 83.699353 -174.125 79.125 C-169.81929981 65.28107053 -168.56622824 52.37979244 -168.8125 38 C-168.82760517 36.43490901 -168.84128306 34.86980358 -168.85351562 33.3046875 C-168.88598861 29.53608947 -168.93743174 25.7682135 -169 22 C-166 24 -166 24 -165.3125 26.625 C-165.1578125 27.800625 -165.1578125 27.800625 -165 29 C-164.34 29 -163.68 29 -163 29 C-155.32402913 42.37985437 -155.32402913 42.37985437 -154 49 C-153.34 49 -152.68 49 -152 49 C-150.7109375 50.609375 -150.7109375 50.609375 -149.375 52.75 C-148.92898438 53.44609375 -148.48296875 54.1421875 -148.0234375 54.859375 C-147 57 -147 57 -147 61 C-146.34 61 -145.68 61 -145 61 C-141.66076994 65.90021954 -138.62761965 71.19267056 -136.375 76.6875 C-134.85602426 80.34685064 -132.98235195 83.66446465 -130.98828125 87.08203125 C-130 89 -130 89 -130 91 C-129.34 91 -128.68 91 -128 91 C-127.72671875 90.40832031 -127.4534375 89.81664062 -127.171875 89.20703125 C-126.03019502 87.05686729 -124.8655402 85.49873708 -123.25 83.6875 C-122.63640625 82.99914062 -122.0228125 82.31078125 -121.390625 81.6015625 C-119.4973881 79.54127528 -117.59088006 77.49705989 -115.671875 75.4609375 C-114.4478698 74.16150248 -113.22391255 72.86202229 -112 71.5625 C-111.38705078 70.91297363 -110.77410156 70.26344727 -110.14257812 69.59423828 C-106.21803335 65.40249495 -102.57721033 61.1196526 -99.234375 56.44140625 C-98.82703125 55.96574219 -98.4196875 55.49007812 -98 55 C-97.34 55 -96.68 55 -96 55 C-95.7421875 54.42765625 -95.484375 53.8553125 -95.21875 53.265625 C-93.88634058 50.78871005 -92.34943882 48.8658834 -90.5 46.75 C-89.8915625 46.04359375 -89.283125 45.3371875 -88.65625 44.609375 C-87 43 -87 43 -85 43 C-84.60167969 42.10667969 -84.60167969 42.10667969 -84.1953125 41.1953125 C-82.96553752 38.93670616 -81.75225947 37.61255644 -79.875 35.875 C-77.00655095 33.10157204 -74.51411023 30.21042556 -72.0625 27.0625 C-68.35923408 22.3381394 -64.31972533 18.15637437 -60 14 C-59.4121875 13.29746094 -58.824375 12.59492187 -58.21875 11.87109375 C-55.18565904 9.31325824 -52.65061283 9.05522653 -48.75 8.4375 C-47.3072509 8.19555547 -45.86454369 7.95336103 -44.421875 7.7109375 C-43.68646484 7.59331055 -42.95105469 7.47568359 -42.19335938 7.35449219 C-38.7868449 6.80392907 -35.39304097 6.19018737 -32 5.5625 C-31.02015137 5.38388428 -31.02015137 5.38388428 -30.02050781 5.20166016 C-23.83352039 4.03989153 -17.78515646 2.44280659 -11.71875 0.76953125 C-7.63431401 -0.07567242 -4.15512866 -0.13329506 0 0 Z " fill="#054367" transform="translate(432,77)"/>
<path d="M0 0 C2.43595001 1.37586065 5.01777588 2.15220776 7.6875 2.953125 C7.6875 3.613125 7.6875 4.273125 7.6875 4.953125 C8.2753125 5.04335937 8.863125 5.13359375 9.46875 5.2265625 C14.62679968 6.91564215 18.23429154 12.94084625 20.9375 17.453125 C30.43773598 36.45359697 28.41438115 59.45390505 21.94140625 79.23291016 C20.33820324 83.87003529 18.55534181 88.41693774 16.6875 92.953125 C16.02007132 94.61948666 15.35307363 96.28602153 14.6875 97.953125 C14.0275 97.953125 13.3675 97.953125 12.6875 97.953125 C12.59339844 98.67371094 12.49929687 99.39429688 12.40234375 100.13671875 C11.57411218 103.39986061 10.25207448 105.32260589 8.25 108.015625 C6.1072929 110.91879182 4.19639426 113.66995307 2.6875 116.953125 C2.0275 116.953125 1.3675 116.953125 0.6875 116.953125 C0.4503125 117.50484375 0.213125 118.0565625 -0.03125 118.625 C-1.62495143 121.52087211 -3.60167273 123.74824537 -5.8125 126.203125 C-6.6065625 127.09515625 -7.400625 127.9871875 -8.21875 128.90625 C-10.3125 130.953125 -10.3125 130.953125 -12.3125 130.953125 C-12.3125 131.613125 -12.3125 132.273125 -12.3125 132.953125 C-13.9921875 134.4609375 -13.9921875 134.4609375 -16.1875 136.078125 C-16.90679687 136.61695313 -17.62609375 137.15578125 -18.3671875 137.7109375 C-20.3125 138.953125 -20.3125 138.953125 -22.3125 138.953125 C-22.3125 139.613125 -22.3125 140.273125 -22.3125 140.953125 C-24.93664851 143.1800225 -27.88342694 144.9908709 -30.75 146.890625 C-31.53310547 147.42880859 -32.31621094 147.96699219 -33.12304688 148.52148438 C-38.9944121 152.44056026 -45.08632876 155.953125 -52.3125 155.953125 C-51.9825 154.633125 -51.6525 153.313125 -51.3125 151.953125 C-50.6525 151.953125 -49.9925 151.953125 -49.3125 151.953125 C-48.91417969 150.99599609 -48.91417969 150.99599609 -48.5078125 150.01953125 C-48.15460938 149.19324219 -47.80140625 148.36695313 -47.4375 147.515625 C-47.08945313 146.69191406 -46.74140625 145.86820313 -46.3828125 145.01953125 C-45.3125 142.953125 -45.3125 142.953125 -43.3125 141.953125 C-43.6425 140.633125 -43.9725 139.313125 -44.3125 137.953125 C-44.9725 137.953125 -45.6325 137.953125 -46.3125 137.953125 C-46.3125 138.613125 -46.3125 139.273125 -46.3125 139.953125 C-45.6525 139.953125 -44.9925 139.953125 -44.3125 139.953125 C-44.3125 140.613125 -44.3125 141.273125 -44.3125 141.953125 C-45.16972656 141.90542969 -46.02695313 141.85773438 -46.91015625 141.80859375 C-50.67834868 141.96866622 -53.25624339 142.87059144 -56.75 144.265625 C-77.07690497 151.81867495 -105.38780022 155.36947429 -126.3125 147.953125 C-126.3125 146.963125 -126.3125 145.973125 -126.3125 144.953125 C-124.4253125 144.62441406 -124.4253125 144.62441406 -122.5 144.2890625 C-105.70910233 141.23572213 -91.681087 136.04248849 -76.76171875 127.80859375 C-73.3125 125.953125 -73.3125 125.953125 -70.3125 124.953125 C-70.3125 124.293125 -70.3125 123.633125 -70.3125 122.953125 C-67.12223467 120.63293203 -63.89523331 118.60669422 -60.3125 116.953125 C-60.3125 116.293125 -60.3125 115.633125 -60.3125 114.953125 C-58.9921875 113.7265625 -58.9921875 113.7265625 -57.1875 112.328125 C-52.70137239 108.62615791 -48.92499436 104.17811372 -46.3125 98.953125 C-45.6525 98.953125 -44.9925 98.953125 -44.3125 98.953125 C-44.02632813 98.38078125 -43.74015625 97.8084375 -43.4453125 97.21875 C-40.87890625 92.0859375 -40.87890625 92.0859375 -38.3125 86.953125 C-37.6525 86.953125 -36.9925 86.953125 -36.3125 86.953125 C-35.6525 84.313125 -34.9925 81.673125 -34.3125 78.953125 C-33.6525 78.953125 -32.9925 78.953125 -32.3125 78.953125 C-32.21453125 78.416875 -32.1165625 77.880625 -32.015625 77.328125 C-31.25580942 73.34564332 -30.46456427 69.45574964 -29.2890625 65.5703125 C-25.11385835 51.38646293 -22.60810214 32.83342765 -29.69921875 19.23046875 C-36.21366805 10.034527 -45.50201477 5.88471291 -56.23828125 3.546875 C-64.80338013 2.10937589 -73.64800107 2.16428352 -82.3125 1.953125 C-69.14891614 -11.21045886 -14.73672081 -8.51172668 0 0 Z " fill="#1E2E3F" transform="translate(228.3125,91.046875)"/>
<path d="M0 0 C-0.74660712 5.72398793 -1.82877141 11.34853777 -3 17 C-3.99 17 -4.98 17 -6 17 C-6.12955078 17.82177734 -6.12955078 17.82177734 -6.26171875 18.66015625 C-7.45799015 25.40976093 -9.49814736 31.7570377 -11.71484375 38.23046875 C-12.8353499 41.51705973 -13.90944797 44.80856437 -14.9375 48.125 C-15.26878906 49.17171875 -15.60007812 50.2184375 -15.94140625 51.296875 C-16.76724014 54.18576994 -17.45550702 57.02132588 -18.08984375 59.953125 C-21.06148805 72.87889505 -25.60100193 80.70888142 -35.58300781 89.50219727 C-37.18780194 91.19851222 -38.00592376 92.89960008 -39 95 C-40.47265625 96.4140625 -40.47265625 96.4140625 -42.0625 97.625 C-45.00824713 99.67119397 -45.00824713 99.67119397 -46 102 C-46.66 102 -47.32 102 -48 102 C-48 102.66 -48 103.32 -48 104 C-48.66 104 -49.32 104 -50 104 C-50.2678833 104.59006836 -50.5357666 105.18013672 -50.81176758 105.78808594 C-52.01173483 108.02184458 -53.26612013 109.56273425 -55.01171875 111.390625 C-55.89633789 112.32551758 -55.89633789 112.32551758 -56.79882812 113.27929688 C-57.42208984 113.92962891 -58.04535156 114.57996094 -58.6875 115.25 C-59.96311164 116.59813372 -61.23786131 117.94708361 -62.51171875 119.296875 C-63.11935059 119.93947266 -63.72698242 120.58207031 -64.35302734 121.24414062 C-66.27641459 123.29468925 -68.15223058 125.38111318 -70 127.5 C-70.51304687 128.0878125 -71.02609375 128.675625 -71.5546875 129.28125 C-72.58704744 130.50892127 -73.58924855 131.76221205 -74.5703125 133.03125 C-75.33988281 134.00578125 -75.33988281 134.00578125 -76.125 135 C-76.56070313 135.5775 -76.99640625 136.155 -77.4453125 136.75 C-79.6269902 138.50411272 -81.2844344 138.21943964 -84 138 C-84.83848804 136.54462432 -85.67063934 135.08559627 -86.5 133.625 C-86.9640625 132.81289062 -87.428125 132.00078125 -87.90625 131.1640625 C-89 129 -89 129 -89 127 C-89.66 127 -90.32 127 -91 127 C-91.27150879 126.44650879 -91.54301758 125.89301758 -91.82275391 125.32275391 C-98.42177431 111.72111559 -98.42177431 111.72111559 -106.0390625 98.6796875 C-107 97 -107 97 -107 95 C-107.66 95 -108.32 95 -109 95 C-109.32871094 94.18208984 -109.32871094 94.18208984 -109.6640625 93.34765625 C-111.86887115 88.10451373 -114.43062904 83.73204838 -117.92578125 79.23828125 C-120.134162 74.63681882 -117.65770529 69.699353 -116.125 65.125 C-111.81929981 51.28107053 -110.56622824 38.37979244 -110.8125 24 C-110.82760517 22.43490901 -110.84128306 20.86980358 -110.85351562 19.3046875 C-110.88598861 15.53608947 -110.93743174 11.7682135 -111 8 C-108 10 -108 10 -107.3125 12.625 C-107.209375 13.40875 -107.10625 14.1925 -107 15 C-106.34 15 -105.68 15 -105 15 C-97.32402913 28.37985437 -97.32402913 28.37985437 -96 35 C-95.34 35 -94.68 35 -94 35 C-92.7109375 36.609375 -92.7109375 36.609375 -91.375 38.75 C-90.92898438 39.44609375 -90.48296875 40.1421875 -90.0234375 40.859375 C-89 43 -89 43 -89 47 C-88.34 47 -87.68 47 -87 47 C-83.66076994 51.90021954 -80.62761965 57.19267056 -78.375 62.6875 C-76.85602426 66.34685064 -74.98235195 69.66446465 -72.98828125 73.08203125 C-72 75 -72 75 -72 77 C-71.34 77 -70.68 77 -70 77 C-69.72671875 76.40832031 -69.4534375 75.81664062 -69.171875 75.20703125 C-68.03019502 73.05686729 -66.8655402 71.49873708 -65.25 69.6875 C-64.63640625 68.99914062 -64.0228125 68.31078125 -63.390625 67.6015625 C-61.4973881 65.54127528 -59.59088006 63.49705989 -57.671875 61.4609375 C-56.4478698 60.16150248 -55.22391255 58.86202229 -54 57.5625 C-53.38705078 56.91297363 -52.77410156 56.26344727 -52.14257812 55.59423828 C-48.21803335 51.40249495 -44.57721033 47.1196526 -41.234375 42.44140625 C-40.82703125 41.96574219 -40.4196875 41.49007812 -40 41 C-39.34 41 -38.68 41 -38 41 C-37.7421875 40.42765625 -37.484375 39.8553125 -37.21875 39.265625 C-35.88634058 36.78871005 -34.34943882 34.8658834 -32.5 32.75 C-31.8915625 32.04359375 -31.283125 31.3371875 -30.65625 30.609375 C-29 29 -29 29 -27 29 C-26.73445313 28.40445313 -26.46890625 27.80890625 -26.1953125 27.1953125 C-24.96553752 24.93670616 -23.75225947 23.61255644 -21.875 21.875 C-19.00655095 19.10157204 -16.51411023 16.21042556 -14.0625 13.0625 C-3.80053599 0 -3.80053599 0 0 0 Z " fill="#223345" transform="translate(374,91)"/>
<path d="M0 0 C0 0.99 0 1.98 0 3 C-0.78375 3.0825 -1.5675 3.165 -2.375 3.25 C-3.24125 3.4975 -4.1075 3.745 -5 4 C-5.70866596 5.31149334 -6.37072831 6.64861576 -7 8 C-7.86888895 9.13737613 -8.77899413 10.24416462 -9.72265625 11.3203125 C-10.25665039 11.93293945 -10.79064453 12.54556641 -11.34082031 13.17675781 C-11.90897461 13.81967773 -12.47712891 14.46259766 -13.0625 15.125 C-13.64741211 15.79370117 -14.23232422 16.46240234 -14.83496094 17.15136719 C-18.10594508 20.88219315 -21.4138408 24.57727252 -24.75 28.25 C-28.57831832 32.46953333 -32.16734587 36.85269142 -35.75 41.28125 C-37.93501569 43.92147729 -40.19171391 46.4672972 -42.5 49 C-46.33139228 53.20857597 -49.94244925 57.55501685 -53.51953125 61.98046875 C-56.97387798 66.1855239 -60.53153493 70.29928989 -64.1027832 74.40527344 C-66.83942563 77.50183434 -66.83942563 77.50183434 -69 81 C-69.66 81 -70.32 81 -71 81 C-71.33 83.64 -71.66 86.28 -72 89 C-72.33 88.01 -72.66 87.02 -73 86 C-76.24849977 87.72226496 -76.24849977 87.72226496 -77 91 C-77.66 91 -78.32 91 -79 91 C-79.66 92.65 -80.32 94.3 -81 96 C-81.66 96 -82.32 96 -83 96 C-83.625 94.125 -83.625 94.125 -84 92 C-83.01 91.01 -83.01 91.01 -82 90 C-81.26800946 88.0804134 -81.26800946 88.0804134 -80.703125 85.84375 C-80.46980469 84.99546631 -80.23648437 84.14718262 -79.99609375 83.27319336 C-79.74988281 82.35803955 -79.50367188 81.44288574 -79.25 80.5 C-77.33504727 73.58128993 -75.32262145 66.73059283 -73 59.9375 C-69.73435131 50.3702545 -66.85435189 40.69669896 -64 31 C-63.01 31 -62.02 31 -61 31 C-60.90912109 30.03900391 -60.90912109 30.03900391 -60.81640625 29.05859375 C-59.50420168 15.51260504 -59.50420168 15.51260504 -58 11 C-57.195625 10.85304688 -57.195625 10.85304688 -56.375 10.703125 C-50.98919201 9.67556953 -45.68333638 8.43085396 -40.375 7.0625 C-34.10681926 5.45362711 -27.82659562 4.14624022 -21.45654297 3.01074219 C-18.0907532 2.40763836 -14.79331648 1.732313 -11.5 0.8125 C-7.48669443 -0.11916022 -4.10480232 -0.14660008 0 0 Z " fill="#25ADBC" transform="translate(432,77)"/>
<path d="M0 0 C24.84733137 -0.67846105 47.87108375 -0.61894438 72 6 C73.80439176 6.46988711 75.60906123 6.93870966 77.4140625 7.40625 C81.63581331 8.52353834 85.81732036 9.74474295 90 11 C90.95261719 11.26425781 91.90523438 11.52851562 92.88671875 11.80078125 C109.45715066 16.45715066 109.45715066 16.45715066 114 21 C109.56802496 20.58963194 105.59626838 19.94712604 101.36328125 18.5625 C86.06697134 13.89299665 69.80618185 13.72188016 53.9375 13.75 C52.8403215 13.75116318 52.8403215 13.75116318 51.72097778 13.75234985 C41.77799864 13.78291873 31.91315853 14.22504169 22 15 C22 14.34 22 13.68 22 13 C25.465 12.505 25.465 12.505 29 12 C29 11.34 29 10.68 29 10 C30.98 10.33 32.96 10.66 35 11 C35 10.34 35 9.68 35 9 C32.525 8.505 32.525 8.505 30 8 C29.505 6.515 29.505 6.515 29 5 C27.78183594 5.01160156 26.56367188 5.02320312 25.30859375 5.03515625 C23.68489738 5.04454178 22.06119933 5.05364116 20.4375 5.0625 C19.23770508 5.07506836 19.23770508 5.07506836 18.01367188 5.08789062 C5.7071818 5.1381212 5.7071818 5.1381212 1 2 C1 2.99 1 3.98 1 5 C-3.455 5.495 -3.455 5.495 -8 6 C-8 5.67 -8 5.34 -8 5 C-11.63 4.67 -15.26 4.34 -19 4 C-19 3.67 -19 3.34 -19 3 C-12.62641289 2.03794912 -6.44070471 1.89344422 0 2 C0 1.34 0 0.68 0 0 Z " fill="#083364" transform="translate(136,66)"/>
<path d="M0 0 C-1.36983503 3.16115776 -1.9890638 3.9927092 -5 6 C2.86067598 6.24693223 10.34784347 5.96687701 18 4 C18.33 3.67 18.66 3.34 19 3 C20.66617115 2.95936168 22.33388095 2.957279 24 3 C23.34 3.66 22.68 4.32 22 5 C24.64 5.33 27.28 5.66 30 6 C29 8 29 8 26.4453125 9 C5.61255685 15.27433582 -20.93813123 19.46496615 -42 12 C-42 11.01 -42 10.02 -42 9 C-40.76507813 8.78085938 -39.53015625 8.56171875 -38.2578125 8.3359375 C-28.45397428 6.52304571 -19.09283542 4.33563484 -9.73876953 0.84326172 C-6.01877783 -0.51016561 -3.77952002 -1.20867635 0 0 Z " fill="#212832" transform="translate(144,227)"/>
<path d="M0 0 C0.17758621 4.41334614 -0.39351966 7.85322798 -1.6875 12.0625 C-4.63563486 22.25443106 -6.12024643 32.7567261 -7.8515625 43.20703125 C-8.23191929 45.47176797 -8.61458712 47.73611825 -9 50 C-9.17241211 51.01497559 -9.34482422 52.02995117 -9.52246094 53.07568359 C-9.77044434 54.4362085 -9.77044434 54.4362085 -10.0234375 55.82421875 C-10.16442871 56.61272217 -10.30541992 57.40122559 -10.45068359 58.21362305 C-10.63195801 58.80312744 -10.81323242 59.39263184 -11 60 C-11.99 60.495 -11.99 60.495 -13 61 C-12.67 56.71 -12.34 52.42 -12 48 C-11.34 48 -10.68 48 -10 48 C-11.12697043 43.03088634 -11.12697043 43.03088634 -14 39 C-13.34 39 -12.68 39 -12 39 C-11.71125 38.4225 -11.4225 37.845 -11.125 37.25 C-10 35 -10 35 -8.9375 33.25 C-6.44552616 27.26926279 -6.86727405 20.3708454 -7 14 C-11.14893539 16.18019628 -13.57527548 18.62375076 -16.4375 22.3125 C-18.98022846 25.52481362 -21.47503887 28.60573568 -24.4375 31.4375 C-26.70611267 33.70611267 -27.65088248 35.20539943 -29 38 C-29.61875 38.433125 -30.2375 38.86625 -30.875 39.3125 C-33.29711462 41.23594396 -34.24167013 43.27631182 -35.66015625 45.9765625 C-37.35071775 48.52965538 -39.39321894 50.40748208 -41.625 52.5 C-45.52033605 56.2290327 -47.20819711 58.6836092 -48 64 C-50 63 -50 63 -51 61 C-52.98 61.495 -52.98 61.495 -55 62 C-51.11579354 56.54687877 -46.87073049 51.57552263 -42.35546875 46.63671875 C-39.98625312 43.9846117 -37.73516359 41.26567362 -35.5 38.5 C-32.5918662 34.9052235 -29.61458668 31.41739372 -26.5 28 C-20.90111262 21.84705606 -15.71405783 15.37664472 -10.50390625 8.89453125 C-9.69824219 7.89808594 -8.89257812 6.90164062 -8.0625 5.875 C-7.33160156 4.96492188 -6.60070312 4.05484375 -5.84765625 3.1171875 C-3.85400257 0.83270484 -3.03483867 0 0 0 Z " fill="#056884" transform="translate(431,80)"/>
<path d="M0 0 C0.66 0.66 1.32 1.32 2 2 C1.64607321 5.83276819 -0.53967181 8.98305251 -2.4375 12.25 C-3.05496094 13.32765625 -3.67242187 14.4053125 -4.30859375 15.515625 C-4.86675781 16.33546875 -5.42492187 17.1553125 -6 18 C-6.66 18 -7.32 18 -8 18 C-8.2371875 18.55171875 -8.474375 19.1034375 -8.71875 19.671875 C-10.31245143 22.56774711 -12.28917273 24.79512037 -14.5 27.25 C-15.2940625 28.14203125 -16.088125 29.0340625 -16.90625 29.953125 C-19 32 -19 32 -21 32 C-21 32.66 -21 33.32 -21 34 C-23.3125 36.1875 -23.3125 36.1875 -26 38 C-26.99 37.67 -27.98 37.34 -29 37 C-29 36.01 -29 35.02 -29 34 C-27.68 34 -26.36 34 -25 34 C-24.67 31.69 -24.34 29.38 -24 27 C-25.65 27.66 -27.3 28.32 -29 29 C-29 28.01 -29 27.02 -29 26 C-26.34771188 24.92474806 -23.71631546 23.90543849 -21 23 C-21.99 21.68 -22.98 20.36 -24 19 C-22.68 19 -21.36 19 -20 19 C-19.731875 18.38125 -19.46375 17.7625 -19.1875 17.125 C-18 15 -18 15 -15 13 C-13.68 13 -12.36 13 -11 13 C-10.731875 12.401875 -10.46375 11.80375 -10.1875 11.1875 C-9.00082594 9.00152146 -7.90400887 7.58667406 -6 6 C-5.34 6 -4.68 6 -4 6 C-4 5.01 -4 4.02 -4 3 C-2.68 2.67 -1.36 2.34 0 2 C0 1.34 0 0.68 0 0 Z " fill="#091830" transform="translate(237,190)"/>
<path d="M0 0 C-6.27148594 4.08375829 -12.84147597 5.95696991 -20 8 C-21.1653125 8.35320312 -22.330625 8.70640625 -23.53125 9.0703125 C-24.6965625 9.41835937 -25.861875 9.76640625 -27.0625 10.125 C-28.10535156 10.43695313 -29.14820313 10.74890625 -30.22265625 11.0703125 C-40.42397289 13.58108123 -50.19519477 14.31533869 -60.6875 14.25 C-62.56791992 14.26160156 -62.56791992 14.26160156 -64.48632812 14.2734375 C-81.76291513 14.23708487 -81.76291513 14.23708487 -86 10 C-81.71 10.33 -77.42 10.66 -73 11 C-73 10.67 -73 10.34 -73 10 C-68.84877256 9.02925296 -64.76720688 8.76701067 -60.5234375 8.60546875 C-59.04153862 8.53961603 -57.55968754 8.47268089 -56.07788086 8.40478516 C-55.30894501 8.36992004 -54.54000916 8.33505493 -53.74777222 8.2991333 C-29.1534023 7.23391488 -29.1534023 7.23391488 -5.91015625 -0.36328125 C-3.57278439 -1.1424052 -2.29408957 -0.79548967 0 0 Z " fill="#DBDEE5" transform="translate(182,233)"/>
<path d="M0 0 C-0.74660712 5.72398793 -1.82877141 11.34853777 -3 17 C-3.99 17 -4.98 17 -6 17 C-6.18175781 17.97839844 -6.18175781 17.97839844 -6.3671875 18.9765625 C-7.28943989 23.78646342 -8.30167277 28.39025465 -10 33 C-10.33 33 -10.66 33 -11 33 C-10.98839844 32.21753906 -10.97679687 31.43507813 -10.96484375 30.62890625 C-10.95582031 29.61699219 -10.94679688 28.60507813 -10.9375 27.5625 C-10.92589844 26.55316406 -10.91429687 25.54382813 -10.90234375 24.50390625 C-10.71387324 22.05978933 -10.71387324 22.05978933 -12 21 C-12.66 22.32 -13.32 23.64 -14 25 C-14.66 25 -15.32 25 -16 25 C-16 24.01 -16 23.02 -16 22 C-17.32 21.34 -18.64 20.68 -20 20 C-3.36842105 0 -3.36842105 0 0 0 Z " fill="#2D3F50" transform="translate(374,91)"/>
<path d="M0 0 C6.03230491 -0.02474909 12.06458015 -0.04288334 18.09692383 -0.05493164 C20.14836136 -0.0599553 22.19979532 -0.06677537 24.2512207 -0.07543945 C27.2026457 -0.08759112 30.15402327 -0.09324804 33.10546875 -0.09765625 C34.02023483 -0.10281754 34.93500092 -0.10797882 35.87748718 -0.11329651 C40.04884192 -0.11366265 43.93379308 -0.06733315 48 1 C48 1.66 48 2.32 48 3 C49.32 3.33 50.64 3.66 52 4 C45.86177595 3.88134827 39.7237005 3.75707383 33.58569336 3.62768555 C31.49946146 3.58448866 29.41319767 3.54280342 27.3269043 3.50268555 C24.32070321 3.44461202 21.31466039 3.38102607 18.30859375 3.31640625 C17.38227646 3.29969376 16.45595917 3.28298126 15.50157166 3.26576233 C10.58074517 3.15428037 5.85529732 2.81648028 1 2 C1 2.99 1 3.98 1 5 C-3.455 5.495 -3.455 5.495 -8 6 C-8 5.67 -8 5.34 -8 5 C-11.63 4.67 -15.26 4.34 -19 4 C-19 3.67 -19 3.34 -19 3 C-12.62641289 2.03794912 -6.44070471 1.89344422 0 2 C0 1.34 0 0.68 0 0 Z " fill="#375479" transform="translate(136,66)"/>
<path d="M0 0 C26.57142857 5.57142857 26.57142857 5.57142857 33 12 C28.56927275 11.58974748 24.60491138 10.94828421 20.375 9.55859375 C15.07844021 7.93984909 9.86559344 7.04335015 4.375 6.375 C3.37533203 6.25020264 2.37566406 6.12540527 1.34570312 5.99682617 C-12.70571226 4.39553435 -26.87193223 4.24419216 -41 4 C-41 3.67 -41 3.34 -41 3 C-36.46509185 2.97506817 -31.93022461 2.95703143 -27.39526367 2.94506836 C-25.85619409 2.94007504 -24.31712916 2.93327806 -22.77807617 2.92456055 C-14.79274406 2.88049997 -6.92367363 2.85516888 1 4 C0.505 2.02 0.505 2.02 0 0 Z " fill="#365277" transform="translate(217,75)"/>
<path d="M0 0 C5.94 0.66 11.88 1.32 18 2 C18 1.34 18 0.68 18 0 C19.02770508 0.05329468 19.02770508 0.05329468 20.07617188 0.10766602 C23.21713156 0.26646369 26.35851104 0.41455779 29.5 0.5625 C31.11648437 0.64661133 31.11648437 0.64661133 32.765625 0.73242188 C37.4823107 0.94812397 41.97874224 1.12025238 46.65625 0.40234375 C48.31140625 0.20318359 48.31140625 0.20318359 50 0 C50.66 0.66 51.32 1.32 52 2 C51.34 2 50.68 2 50 2 C50 2.66 50 3.32 50 4 C43.20069165 4.02529479 36.40139537 4.04284349 29.60205078 4.05493164 C27.28759304 4.05996943 24.9731385 4.06679981 22.65869141 4.07543945 C19.3375571 4.08752924 16.01646475 4.09323375 12.6953125 4.09765625 C11.13588425 4.10539818 11.13588425 4.10539818 9.54495239 4.11329651 C8.58410736 4.11337204 7.62326233 4.11344757 6.63330078 4.11352539 C5.78502716 4.115746 4.93675354 4.11796661 4.06277466 4.12025452 C2 4 2 4 0 3 C0 2.01 0 1.02 0 0 Z " fill="#232A46" transform="translate(86,256)"/>
<path d="M0 0 C0.66 0 1.32 0 2 0 C2.17758621 4.41334614 1.60648034 7.85322798 0.3125 12.0625 C-2.63563486 22.25443106 -4.12024643 32.7567261 -5.8515625 43.20703125 C-6.23191929 45.47176797 -6.61458712 47.73611825 -7 50 C-7.25861816 51.52246338 -7.25861816 51.52246338 -7.52246094 53.07568359 C-7.6877832 53.9827002 -7.85310547 54.8897168 -8.0234375 55.82421875 C-8.16442871 56.61272217 -8.30541992 57.40122559 -8.45068359 58.21362305 C-8.63195801 58.80312744 -8.81323242 59.39263184 -9 60 C-9.99 60.495 -9.99 60.495 -11 61 C-10.67 56.71 -10.34 52.42 -10 48 C-9.34 48 -8.68 48 -8 48 C-9.12697043 43.03088634 -9.12697043 43.03088634 -12 39 C-11.34 39 -10.68 39 -10 39 C-9.71125 38.4225 -9.4225 37.845 -9.125 37.25 C-8.43663196 35.87326392 -7.72227805 34.50868105 -6.96484375 33.16870117 C-5.8673774 30.70190118 -5.62855323 28.73899161 -5.4375 26.05078125 C-5.36273438 25.12072266 -5.28796875 24.19066406 -5.2109375 23.23242188 C-5.06947031 21.2741492 -4.92885525 19.31581479 -4.7890625 17.35742188 C-4.71429688 16.43123047 -4.63953125 15.50503906 -4.5625 14.55078125 C-4.50191406 13.70169189 -4.44132812 12.85260254 -4.37890625 11.9777832 C-4.25386719 11.32511475 -4.12882812 10.67244629 -4 10 C-3.34 9.67 -2.68 9.34 -2 9 C-1.31270746 6.88153715 -1.31270746 6.88153715 -0.875 4.4375 C-0.62363281 3.19806641 -0.62363281 3.19806641 -0.3671875 1.93359375 C-0.24601562 1.29550781 -0.12484375 0.65742187 0 0 Z " fill="#20788E" transform="translate(429,80)"/>
<path d="M0 0 C0.66 0.33 1.32 0.66 2 1 C2 4 2 4 -0.25 6.6875 C-3 9 -3 9 -7 9 C-7.2475 9.61875 -7.495 10.2375 -7.75 10.875 C-9 13 -9 13 -10.8125 13.875 C-13.32668619 14.98375251 -13.32668619 14.98375251 -15.5 18.0625 C-18 21 -18 21 -20.125 22 C-22 22 -22 22 -25 20 C-23.625 18.5 -23.625 18.5 -22 17 C-21.34 17 -20.68 17 -20 17 C-19.34 15.68 -18.68 14.36 -18 13 C-17.34 13 -16.68 13 -16 13 C-16 12.34 -16 11.68 -16 11 C-15.0925 10.5875 -14.185 10.175 -13.25 9.75 C-10.13518287 8.07279078 -8.42900355 6.50490991 -6 4 C-4.02369593 2.63178949 -2.02790984 1.29048808 0 0 Z " fill="#133865" transform="translate(70,87)"/>
<path d="M0 0 C0.99 1.485 0.99 1.485 2 3 C1.67 3.33 1.34 3.66 1 4 C1.66 4.66 2.32 5.32 3 6 C1.3745692 5.85904936 -0.25034051 5.71207913 -1.875 5.5625 C-2.77992188 5.48128906 -3.68484375 5.40007812 -4.6171875 5.31640625 C-7 5 -7 5 -9 4 C-10.66565749 3.84777027 -12.33656496 3.75082785 -14.0078125 3.68359375 C-14.99394531 3.64169922 -15.98007813 3.59980469 -16.99609375 3.55664062 C-18.54490234 3.49766602 -18.54490234 3.49766602 -20.125 3.4375 C-21.68541016 3.37272461 -21.68541016 3.37272461 -23.27734375 3.30664062 C-25.85142528 3.2003712 -28.42560508 3.09833417 -31 3 C-28.19853481 0.19853481 -25.07664256 0.04025874 -21.3125 -0.625 C-20.61705078 -0.7590625 -19.92160156 -0.893125 -19.20507812 -1.03125 C-12.53137084 -2.25258205 -6.36348047 -2.81177044 0 0 Z " fill="#3A4957" transform="translate(177,90)"/>
<path d="M0 0 C0.66 0.33 1.32 0.66 2 1 C2.125 8.625 2.125 8.625 1 12 C-16.49 12 -33.98 12 -52 12 C-52 11.34 -52 10.68 -52 10 C-50.63065308 10.00785522 -50.63065308 10.00785522 -49.23364258 10.01586914 C-45.83243167 10.03295631 -42.43126669 10.0454722 -39.0300293 10.05493164 C-37.56062091 10.05994669 -36.09121748 10.06676033 -34.62182617 10.07543945 C-32.50438205 10.08762928 -30.38700417 10.09325669 -28.26953125 10.09765625 C-26.99698486 10.10289307 -25.72443848 10.10812988 -24.41333008 10.11352539 C-21.45260299 10.01505331 -18.87984071 9.62517902 -16 9 C-13.89237945 9.08197771 -11.78647374 9.22990919 -9.6875 9.4375 C-8.61886719 9.53933594 -7.55023438 9.64117187 -6.44921875 9.74609375 C-5.64097656 9.82988281 -4.83273437 9.91367188 -4 10 C-3.34 9.01 -2.68 8.02 -2 7 C-1.505 7.495 -1.505 7.495 -1 8 C-1.020625 6.865625 -1.04125 5.73125 -1.0625 4.5625 C-1 1 -1 1 0 0 Z " fill="#051B39" transform="translate(395,239)"/>
<path d="M0 0 C0.33 0.99 0.66 1.98 1 3 C-2.15386642 8.50174475 -6.23454723 13.44240671 -10.875 17.75 C-14.2404524 20.91613175 -15.17115318 23.48738954 -16 28 C-18 27 -18 27 -19 25 C-20.32 25.33 -21.64 25.66 -23 26 C-16.90182398 17.43863916 -10.19858685 9.59886259 -2 3 C-1.34 2.01 -0.68 1.02 0 0 Z " fill="#045B77" transform="translate(399,116)"/>
<path d="M0 0 C0.495 0.99 0.495 0.99 1 2 C-2.91032325 4.68788698 -6.1279711 5.57235984 -10.8125 6.1875 C-12.55466797 6.42533203 -12.55466797 6.42533203 -14.33203125 6.66796875 C-15.65267578 6.83232422 -15.65267578 6.83232422 -17 7 C-17 7.66 -17 8.32 -17 9 C-18.093125 8.938125 -19.18625 8.87625 -20.3125 8.8125 C-23.91642276 8.61902549 -23.91642276 8.61902549 -25.75 10.5 C-26.36875 11.2425 -26.36875 11.2425 -27 12 C-27.99 12 -28.98 12 -30 12 C-32.67356157 12.28627045 -35.33365575 12.65031551 -38 13 C-36.08924051 9.17848103 -30.8664921 8.31636982 -27 7 C-25.54817383 6.65854263 -24.08960339 6.3441545 -22.625 6.0625 C-17.72298266 5.11344158 -13.40911498 3.11452983 -8.89453125 1.0234375 C-5.74931044 -0.08863787 -3.31068878 -0.18637952 0 0 Z M-31 13 C-29.68 13.66 -28.36 14.32 -27 15 C-28.32 15.33 -29.64 15.66 -31 16 C-31 15.01 -31 14.02 -31 13 Z " fill="#0C3364" transform="translate(115,71)"/>
<path d="M0 0 C1.2065625 0.0309375 1.2065625 0.0309375 2.4375 0.0625 C1.7775 0.7225 1.1175 1.3825 0.4375 2.0625 C3.0775 2.3925 5.7175 2.7225 8.4375 3.0625 C7.4375 5.0625 7.4375 5.0625 5.2890625 6.140625 C2.08310961 7.17707004 -0.82998823 7.55007379 -4.1875 7.8125 C-5.87746094 7.95945313 -5.87746094 7.95945313 -7.6015625 8.109375 C-10.5625 8.0625 -10.5625 8.0625 -13.5625 6.0625 C-13.5625 5.0725 -13.5625 4.0825 -13.5625 3.0625 C-12.85222656 2.92972656 -12.14195312 2.79695312 -11.41015625 2.66015625 C-10.49105469 2.48355469 -9.57195312 2.30695313 -8.625 2.125 C-7.25021484 1.86396484 -7.25021484 1.86396484 -5.84765625 1.59765625 C-3.05499644 0.94364874 -2.95318379 0.07202887 0 0 Z " fill="#09101B" transform="translate(165.5625,229.9375)"/>
<path d="M0 0 C0 0.99 0 1.98 0 3 C-4.7690728 4.057835 -9.49131399 4.38287741 -14.35546875 4.71875 C-16.97414146 4.8411893 -16.97414146 4.8411893 -19 6 C-21.87910588 6.23274209 -24.74146495 6.41972757 -27.625 6.5625 C-28.42679687 6.60568359 -29.22859375 6.64886719 -30.0546875 6.69335938 C-32.0362511 6.79951457 -34.01810271 6.90026855 -36 7 C-32.31638927 4.79742864 -28.41687985 4.20650352 -24.25 3.5 C-17.8285223 2.36986354 -17.8285223 2.36986354 -11.5 0.8125 C-7.48669443 -0.11916022 -4.10480232 -0.14660008 0 0 Z " fill="#4FB8C2" transform="translate(432,77)"/>
<path d="M0 0 C1.485 0.99 1.485 0.99 3 2 C3.34057617 4.43017578 3.34057617 4.43017578 3.29296875 7.4453125 C3.28330078 8.52167969 3.27363281 9.59804687 3.26367188 10.70703125 C3.23853516 11.83496094 3.21339844 12.96289062 3.1875 14.125 C3.17396484 15.26066406 3.16042969 16.39632812 3.14648438 17.56640625 C3.11104319 20.37807387 3.06163517 23.18880417 3 26 C3.33 26 3.66 26 4 26 C4.57374185 32.88490225 3.4753869 37.02667877 0 43 C-0.76972674 40.69081979 -1.0551621 39.25410361 -0.53344727 36.85083008 C0.14097012 33.24663245 0.12390403 29.72511914 0.09765625 26.07421875 C0.0962413 25.32662796 0.09482635 24.57903717 0.09336853 23.80879211 C0.08779764 21.43498635 0.0752506 19.06127697 0.0625 16.6875 C0.05748123 15.07226699 0.05291899 13.4570325 0.04882812 11.84179688 C0.03783775 7.89449445 0.02059332 3.94726353 0 0 Z " fill="#35434F" transform="translate(263,99)"/>
<path d="M0 0 C-8.4431864 5.49788882 -18.28276717 7.71359228 -28 10 C-28 9.67 -28 9.34 -28 9 C-29.65 8.67 -31.3 8.34 -33 8 C-33 7.67 -33 7.34 -33 7 C-31.11667969 6.63648438 -31.11667969 6.63648438 -29.1953125 6.265625 C-17.24396344 3.96641359 -17.24396344 3.96641359 -5.91015625 -0.36328125 C-3.57278439 -1.1424052 -2.29408957 -0.79548967 0 0 Z " fill="#B5BBC7" transform="translate(182,233)"/>
<path d="M0 0 C0.66 0 1.32 0 2 0 C1.75 2.875 1.75 2.875 1 6 C-0.32057539 6.69159444 -1.65627605 7.3545326 -3 8 C-4.96552695 9.82624369 -4.96552695 9.82624369 -6.75 11.9375 C-7.36359375 12.62714844 -7.9771875 13.31679687 -8.609375 14.02734375 C-10.28808737 16.00640538 -10.28808737 16.00640538 -10 19 C-10.99 19 -11.98 19 -13 19 C-13.66 19.99 -14.32 20.98 -15 22 C-17.125 22.6875 -17.125 22.6875 -19 23 C-17.67255384 20.022912 -16.25990701 18.08242556 -13.875 15.875 C-10.05944522 12.20342842 -6.89539098 8.1548278 -3.69921875 3.94140625 C-2.85810547 2.98041016 -2.85810547 2.98041016 -2 2 C-1.34 2 -0.68 2 0 2 C0 1.34 0 0.68 0 0 Z " fill="#DFE2E7" transform="translate(326,193)"/>
<path d="M0 0 C-2.33768068 2.4493115 -3.59427984 3.52698331 -7 4 C-9.33300933 4.03888349 -11.66709801 4.0448635 -14 4 C-14 3.34 -14 2.68 -14 2 C-20.93 2 -27.86 2 -35 2 C-35 1.67 -35 1.34 -35 1 C-23.31068812 0.09710143 -11.72024504 -0.11465457 0 0 Z " fill="#BDC1C7" transform="translate(155,241)"/>
<path d="M0 0 C6.23205365 6.79860399 5.2528745 16.41273519 5.125 25 C5.11597656 26.15628906 5.10695312 27.31257813 5.09765625 28.50390625 C5.07424922 31.33615647 5.04145995 34.16796619 5 37 C4.67 37 4.34 37 4 37 C3.67 30.07 3.34 23.14 3 16 C2.01 16 1.02 16 0 16 C-0.02698189 14.37509046 -0.04638757 12.75005367 -0.0625 11.125 C-0.07410156 10.22007813 -0.08570313 9.31515625 -0.09765625 8.3828125 C0 6 0 6 1 4 C0.34 4 -0.32 4 -1 4 C-0.67 2.68 -0.34 1.36 0 0 Z " fill="#606B78" transform="translate(250,112)"/>
<path d="M0 0 C0.99 0.33 1.98 0.66 3 1 C3.6875 3.25 3.6875 3.25 4 6 C3.5153125 6.6084375 3.030625 7.216875 2.53125 7.84375 C0.62769889 10.52426075 0.68442355 12.00539659 0.8125 15.25 C0.83957031 16.14203125 0.86664063 17.0340625 0.89453125 17.953125 C0.92933594 18.62859375 0.96414063 19.3040625 1 20 C-3.57917109 14.68225292 -3.57917109 14.68225292 -4 11 C-3.22265625 8.203125 -3.22265625 8.203125 -2.0625 5.25 C-1.49208984 3.77273437 -1.49208984 3.77273437 -0.91015625 2.265625 C-0.60980469 1.51796875 -0.30945313 0.7703125 0 0 Z " fill="#313E4A" transform="translate(259,154)"/>
<path d="M0 0 C0.66 0 1.32 0 2 0 C1.67 3.3 1.34 6.6 1 10 C0.67 8.68 0.34 7.36 0 6 C-0.99 6 -1.98 6 -3 6 C-3.144375 6.804375 -3.28875 7.60875 -3.4375 8.4375 C-4 11 -4 11 -5 12 C-5.94875 11.95875 -6.8975 11.9175 -7.875 11.875 C-10.99284776 11.69037283 -10.99284776 11.69037283 -12.875 13.5 C-13.24625 13.995 -13.6175 14.49 -14 15 C-14.66 14.67 -15.32 14.34 -16 14 C-15.04882866 12.8274869 -14.08882991 11.66212985 -13.125 10.5 C-12.59132813 9.8503125 -12.05765625 9.200625 -11.5078125 8.53125 C-11.01023437 8.0259375 -10.51265625 7.520625 -10 7 C-9.34 7 -8.68 7 -8 7 C-8 7.99 -8 8.98 -8 10 C-7.34 10 -6.68 10 -6 10 C-5.34 8.35 -4.68 6.7 -4 5 C-3.34 5 -2.68 5 -2 5 C-1.855625 4.360625 -1.71125 3.72125 -1.5625 3.0625 C-1 1 -1 1 0 0 Z " fill="#D2F2F6" transform="translate(357,163)"/>
<path d="M0 0 C0.66 0.33 1.32 0.66 2 1 C2.125 8.625 2.125 8.625 1 12 C-6.3905476 12.14715692 -13.64424835 11.70776992 -21 11 C-19 9 -19 9 -15.3125 8.8125 C-11.47507066 8.90370033 -7.78355996 9.36940667 -4 10 C-3.34 9.01 -2.68 8.02 -2 7 C-1.67 7.33 -1.34 7.66 -1 8 C-1.0309375 6.2984375 -1.0309375 6.2984375 -1.0625 4.5625 C-1 1 -1 1 0 0 Z " fill="#082341" transform="translate(395,239)"/>
<path d="M0 0 C1.27351308 2.54702616 0.80191925 3.4282945 0.0625 6.125 C-0.13214844 6.84945312 -0.32679688 7.57390625 -0.52734375 8.3203125 C-0.68332031 8.87460938 -0.83929688 9.42890625 -1 10 C-1.33 9.01 -1.66 8.02 -2 7 C-5.24849977 8.72226496 -5.24849977 8.72226496 -6 12 C-6.66 12 -7.32 12 -8 12 C-8.66 13.65 -9.32 15.3 -10 17 C-10.66 17 -11.32 17 -12 17 C-12.625 15.125 -12.625 15.125 -13 13 C-12.34 12.34 -11.68 11.68 -11 11 C-10.28072705 8.68234271 -9.6090107 6.34904126 -9 4 C-8.67 5.32 -8.34 6.64 -8 8 C-6.00016466 7.20882096 -6.00016466 7.20882096 -4 6 C-3.67 5.01 -3.34 4.02 -3 3 C-2.34 3 -1.68 3 -1 3 C-0.67 2.01 -0.34 1.02 0 0 Z " fill="#38ABB9" transform="translate(361,156)"/>
<path d="M0 0 C6.87879864 1.75969268 13.40133458 4.40022505 20 7 C16.11102302 8.48919362 13.49166673 7.43952138 9.625 6.1875 C2.4489034 4.0090421 -4.53802366 2.86186961 -12 2 C-12 1.67 -12 1.34 -12 1 C-8.04 1 -4.08 1 0 1 C0 0.67 0 0.34 0 0 Z " fill="#425A7A" transform="translate(230,79)"/>
<path d="M0 0 C2.475 0.495 2.475 0.495 5 1 C5 1.99 5 2.98 5 4 C-16.78 3.505 -16.78 3.505 -39 3 C-39 2.67 -39 2.34 -39 2 C-26.13 1.67 -13.26 1.34 0 1 C0 0.67 0 0.34 0 0 Z " fill="#0A2C5A" transform="translate(213,75)"/>
<path d="M0 0 C1.98 0.66 3.96 1.32 6 2 C6 2.66 6 3.32 6 4 C6.928125 4.28875 7.85625 4.5775 8.8125 4.875 C12 6 12 6 15 8 C15 8.66 15 9.32 15 10 C15.66 10.33 16.32 10.66 17 11 C10.97229862 10.52412884 6.23321711 7.80277043 1 5 C1 4.34 1 3.68 1 3 C0.34 2.67 -0.32 2.34 -1 2 C-0.67 1.34 -0.34 0.68 0 0 Z " fill="#323C57" transform="translate(49,242)"/>
<path d="M0 0 C0.33 0 0.66 0 1 0 C0.0625 9.21875 0.0625 9.21875 -2 13 C-2.99 13.33 -3.98 13.66 -5 14 C-6.28317892 10.15046324 -6.06643637 7.05261865 -6 3 C-5.195625 2.87625 -4.39125 2.7525 -3.5625 2.625 C-2.716875 2.41875 -1.87125 2.2125 -1 2 C-0.67 1.34 -0.34 0.68 0 0 Z " fill="#E8ECEF" transform="translate(259,149)"/>
<path d="M0 0 C0.66 0 1.32 0 2 0 C2 0.66 2 1.32 2 2 C2.66 2 3.32 2 4 2 C5.06775224 3.96466413 6.06553465 5.96855359 7 8 C6.67 8.66 6.34 9.32 6 10 C5.34 9.67 4.68 9.34 4 9 C4 9.66 4 10.32 4 11 C3.34 11 2.68 11 2 11 C1.67 12.32 1.34 13.64 1 15 C0 14 0 14 -0.09765625 10.83984375 C-0.08025391 8.90818359 -0.08025391 8.90818359 -0.0625 6.9375 C-0.05347656 5.64714844 -0.04445313 4.35679688 -0.03515625 3.02734375 C-0.02355469 2.02832031 -0.01195312 1.02929688 0 0 Z " fill="#253141" transform="translate(265,104)"/>
<path d="M0 0 C0.66 0 1.32 0 2 0 C1.67 3.3 1.34 6.6 1 10 C0.34 9.67 -0.32 9.34 -1 9 C-1.433125 9.825 -1.86625 10.65 -2.3125 11.5 C-3.1478125 12.7375 -3.1478125 12.7375 -4 14 C-4.99 14 -5.98 14 -7 14 C-6.34 12.68 -5.68 11.36 -5 10 C-5.66 9.67 -6.32 9.34 -7 9 C-5.88266271 7.49428343 -4.75589965 5.99555708 -3.625 4.5 C-2.99851562 3.6646875 -2.37203125 2.829375 -1.7265625 1.96875 C-1.15679687 1.3190625 -0.58703125 0.669375 0 0 Z " fill="#05738C" transform="translate(427,81)"/>
<path d="M0 0 C2.4429441 0.84205688 4.66283767 1.87816208 7 3 C5.15234037 5.36089842 3.98716045 6.00382455 1.0625 6.875 C-2 7 -2 7 -4.25 5.75 C-6 4 -6 4 -8 1 C-5.15697309 -0.42151345 -3.16974528 -0.23922606 0 0 Z " fill="#344451" transform="translate(222,88)"/>
<path d="M0 0 C4.7943452 -0.19177381 8.58125882 0.04753297 13 2 C13.99 3.485 13.99 3.485 15 5 C14.67 5.33 14.34 5.66 14 6 C14.66 6.66 15.32 7.32 16 8 C6.82713348 7.64989059 6.82713348 7.64989059 3.375 4.9375 C2.694375 3.9784375 2.694375 3.9784375 2 3 C2.33 2.67 2.66 2.34 3 2 C2.01 1.34 1.02 0.68 0 0 Z " fill="#445466" transform="translate(164,88)"/>
<path d="M0 0 C0.99 0.33 1.98 0.66 3 1 C4.2982126 6.76081841 5.25706972 12.08739655 5 18 C4.01 18.33 3.02 18.66 2 19 C-0.30844801 12.65176798 -0.19818283 6.70518586 0 0 Z " fill="#082043" transform="translate(17,184)"/>
<path d="M0 0 C0.66 1.32 1.32 2.64 2 4 C2 3.34 2 2.68 2 2 C3.65 2 5.3 2 7 2 C6.0078043 4.59579847 5.46306676 5.76451254 2.94140625 7.046875 C2.15636719 7.27890625 1.37132812 7.5109375 0.5625 7.75 C-0.21996094 7.99234375 -1.00242188 8.2346875 -1.80859375 8.484375 C-4 9 -4 9 -7 9 C-6.67 7.68 -6.34 6.36 -6 5 C-5.34 5 -4.68 5 -4 5 C-3.67 4.01 -3.34 3.02 -3 2 C-2.01 2 -1.02 2 0 2 C0 1.34 0 0.68 0 0 Z " fill="#121C39" transform="translate(183,238)"/>
<path d="M0 0 C0.33 0 0.66 0 1 0 C3.43326039 10.81838074 3.43326039 10.81838074 1.625 15.75 C1.08875 16.4925 0.5525 17.235 0 18 C-0.99 18 -1.98 18 -3 18 C-2.41509121 11.85845775 -1.45933748 5.99320151 0 0 Z " fill="#2B526D" transform="translate(354,188)"/>
<path d="M0 0 C1.32 0 2.64 0 4 0 C4.027193 1.58323688 4.04648306 3.16661062 4.0625 4.75 C4.07410156 5.63171875 4.08570313 6.5134375 4.09765625 7.421875 C4.00826198 9.7818838 3.66912821 11.74498524 3 14 C2.01 13.67 1.02 13.34 0 13 C0.33 11.68 0.66 10.36 1 9 C0.34 9 -0.32 9 -1 9 C-0.67 6.03 -0.34 3.06 0 0 Z " fill="#083959" transform="translate(402,194)"/>
<path d="M0 0 C0 0.33 0 0.66 0 1 C-2.31 1 -4.62 1 -7 1 C-7 1.99 -7 2.98 -7 4 C-11.455 4.495 -11.455 4.495 -16 5 C-16 4.67 -16 4.34 -16 4 C-19.63 3.67 -23.26 3.34 -27 3 C-27 2.67 -27 2.34 -27 2 C-24.00051609 1.66134859 -21.00055074 1.32894927 -18 1 C-17.16082031 0.90460938 -16.32164063 0.80921875 -15.45703125 0.7109375 C-10.26859055 0.14785091 -5.21873039 -0.09664316 0 0 Z " fill="#27476F" transform="translate(144,67)"/>
<path d="M0 0 C3.76471443 1.25490481 4.0943702 2.42305949 6 5.8125 C7.83493087 9.04752136 9.70513814 12.06995316 12 15 C9.1875 14.875 9.1875 14.875 6 14 C4.25 11.0625 4.25 11.0625 3 8 C2.34 7.34 1.68 6.68 1 6 C0 5 0 5 -0.0625 2.4375 C-0.041875 1.633125 -0.02125 0.82875 0 0 Z " fill="#1D2A47" transform="translate(65,217)"/>
<path d="M0 0 C0.33 1.32 0.66 2.64 1 4 C1.99 3.67 2.98 3.34 4 3 C6.57719777 5.57719777 7 6.32379932 7 10 C8.50357997 12.25536995 10.08187166 14.08187166 12 16 C8.66873915 15.70707879 7.325532 15.35180525 5.015625 12.85546875 C4.43296875 11.97503906 3.8503125 11.09460938 3.25 10.1875 C2.65703125 9.31480469 2.0640625 8.44210938 1.453125 7.54296875 C0.15945678 5.27904937 -0.65338137 3.57075481 -1 1 C-0.67 0.67 -0.34 0.34 0 0 Z " fill="#0D1D3E" transform="translate(24,214)"/>
<path d="M0 0 C1.25969744 4.61553141 1.76909145 8.98615412 0.02734375 13.546875 C-1.39026062 18.31175051 -1.46411976 22.92793266 -1.625 27.875 C-1.66367187 28.84953125 -1.70234375 29.8240625 -1.7421875 30.828125 C-1.83593033 33.2185672 -1.9216383 35.60901244 -2 38 C-2.33 38 -2.66 38 -3 38 C-3.61916858 12.23623663 -3.61916858 12.23623663 0 0 Z " fill="#42546F" transform="translate(19,154)"/>
<path d="M0 0 C-0.66 0.66 -1.32 1.32 -2 2 C0.64 2.33 3.28 2.66 6 3 C5 5 5 5 1.5625 6.1875 C-2 7 -2 7 -4 6 C-4.99 5.67 -5.98 5.34 -7 5 C-6.67 4.67 -6.34 4.34 -6 4 C-7.65 3.67 -9.3 3.34 -11 3 C-11 2.67 -11 2.34 -11 2 C-7.17679443 0.57741188 -4.08718695 -0.24042276 0 0 Z " fill="#0F1723" transform="translate(168,230)"/>
<path d="M0 0 C-1.49739583 1.23697917 -2.99479167 2.47395833 -4.4921875 3.7109375 C-5.71051161 4.75250992 -6.86660097 5.86660097 -8 7 C-8.66 6.34 -9.32 5.68 -10 5 C-11.1446875 5.495 -11.1446875 5.495 -12.3125 6 C-15 7 -15 7 -18 7 C-18 6.34 -18 5.68 -18 5 C-17.01 5 -16.02 5 -15 5 C-15 4.34 -15 3.68 -15 3 C-12.87790224 2.30359327 -10.75221473 1.61811643 -8.625 0.9375 C-6.84996094 0.36322266 -6.84996094 0.36322266 -5.0390625 -0.22265625 C-2 -1 -2 -1 0 0 Z " fill="#172243" transform="translate(167,240)"/>
<path d="M0 0 C0.66 1.32 1.32 2.64 2 4 C0.68 4.33 -0.64 4.66 -2 5 C-1.731875 5.70125 -1.46375 6.4025 -1.1875 7.125 C-0.97324044 10.41031327 -1.32142529 10.86149867 -3.3125 13.3125 C-4.199375 14.199375 -5.08625 15.08625 -6 16 C-6.66 16 -7.32 16 -8 16 C-6.49387553 10.66010414 -4.01822198 4.01822198 0 0 Z " fill="#DDE7F0" transform="translate(78,130)"/>
<path d="M0 0 C1.32 0.33 2.64 0.66 4 1 C4.75 2.75 4.75 2.75 5 5 C2.70469609 8.54728786 0.20346791 9.36452296 -3.75 10.25 C-5.16402022 10.51455862 -6.58004499 10.76940901 -8 11 C-8 10.34 -8 9.68 -8 9 C-6.73308493 8.32591692 -5.46129251 7.66099503 -4.1875 7 C-3.47980469 6.62875 -2.77210938 6.2575 -2.04296875 5.875 C0 5 0 5 3 5 C3 4.34 3 3.68 3 3 C2.34 3 1.68 3 1 3 C0.67 2.01 0.34 1.02 0 0 Z " fill="#0B1935" transform="translate(181,228)"/>
<path d="M0 0 C0.66 0.33 1.32 0.66 2 1 C-0.875 7.75 -0.875 7.75 -2 10 C-3.875 10.75 -3.875 10.75 -6 11 C-6.99 10.34 -7.98 9.68 -9 9 C-7.625 7.5 -7.625 7.5 -6 6 C-5.34 6 -4.68 6 -4 6 C-3.34 4.68 -2.68 3.36 -2 2 C-1.34 2 -0.68 2 0 2 C0 1.34 0 0.68 0 0 Z " fill="#2B4C71" transform="translate(54,98)"/>
<path d="M0 0 C1.32 0.99 2.64 1.98 4 3 C-0.625 8.875 -0.625 8.875 -4 10 C-5 8 -5 8 -4.25 5 C-3 2 -3 2 0 0 Z " fill="#163A65" transform="translate(88,111)"/>
<path d="M0 0 C-0.74660712 5.72398793 -1.82877141 11.34853777 -3 17 C-3.66 17 -4.32 17 -5 17 C-4.67 13.04 -4.34 9.08 -4 5 C-4.66 4.67 -5.32 4.34 -6 4 C-2.25 0 -2.25 0 0 0 Z " fill="#307586" transform="translate(374,91)"/>
<path d="M0 0 C0.33 0.99 0.66 1.98 1 3 C-2 5 -2 5 -5 5 C-7.67356157 5.28627045 -10.33365575 5.65031551 -13 6 C-11.59719304 3.19438607 -9.9490995 2.99319493 -7.0625 1.875 C-6.16660156 1.52179688 -5.27070312 1.16859375 -4.34765625 0.8046875 C-2 0 -2 0 0 0 Z M-6 6 C-4.68 6.66 -3.36 7.32 -2 8 C-3.32 8.33 -4.64 8.66 -6 9 C-6 8.01 -6 7.02 -6 6 Z " fill="#345780" transform="translate(90,78)"/>
<path d="M0 0 C1.37344385 4.39844322 0.24307502 7.92504555 -0.9375 12.25 C-1.13279297 12.99507812 -1.32808594 13.74015625 -1.52929688 14.5078125 C-2.01104198 16.34079386 -2.50439225 18.17071818 -3 20 C-3.66 20 -4.32 20 -5 20 C-5.66 21.32 -6.32 22.64 -7 24 C-6.31184495 18.61671112 -4.69258365 13.73143827 -2.9375 8.625 C-2.51500977 7.37783203 -2.51500977 7.37783203 -2.08398438 6.10546875 C-1.39342899 4.06891559 -0.69727821 2.03426119 0 0 Z " fill="#2D95A2" transform="translate(362,128)"/>
<path d="M0 0 C0.99386719 0.10183594 1.98773438 0.20367187 3.01171875 0.30859375 C3.77097656 0.39238281 4.53023437 0.47617188 5.3125 0.5625 C4.3225 2.0475 4.3225 2.0475 3.3125 3.5625 C2.9825 3.2325 2.6525 2.9025 2.3125 2.5625 C1.9825 3.2225 1.6525 3.8825 1.3125 4.5625 C-2.40349191 4.76336443 -3.45958445 4.7144437 -6.6875 2.5625 C-7.3475 1.9025 -8.0075 1.2425 -8.6875 0.5625 C-5.3763987 -0.54120043 -3.44001051 -0.36423641 0 0 Z " fill="#2D3F53" transform="translate(179.6875,87.4375)"/>
<path d="M0 0 C0.33 0 0.66 0 1 0 C1.20190089 6.35987804 0.6277833 11.85221129 -1 18 C-1.99 18 -2.98 18 -4 18 C-4.33 16.35 -4.66 14.7 -5 13 C-4.01 12.34 -3.02 11.68 -2 11 C-1.19907746 8.35308332 -1.19907746 8.35308332 -0.8125 5.375 C-0.65394531 4.37210938 -0.49539063 3.36921875 -0.33203125 2.3359375 C-0.22246094 1.56507813 -0.11289062 0.79421875 0 0 Z " fill="#0A2C49" transform="translate(400,219)"/>
<path d="M0 0 C1.98 0 3.96 0 6 0 C6 0.66 6 1.32 6 2 C6.66 2 7.32 2 8 2 C8 2.66 8 3.32 8 4 C6.04109119 5.39300182 4.0360882 6.72245446 2 8 C1.01 8.66 0.02 9.32 -1 10 C-1.33 9.01 -1.66 8.02 -2 7 C-1.34 7 -0.68 7 0 7 C0.66 5.35 1.32 3.7 2 2 C1.34 2 0.68 2 0 2 C0 1.34 0 0.68 0 0 Z " fill="#10345F" transform="translate(96,100)"/>
<path d="M0 0 C0 2 0 4 0 6 C-0.66 6 -1.32 6 -2 6 C-2.391875 6.969375 -2.78375 7.93875 -3.1875 8.9375 C-5 12 -5 12 -7.6875 12.875 C-8.450625 12.91625 -9.21375 12.9575 -10 13 C-8.48446596 9.52224821 -6.4226544 7.0442016 -3.875 4.25 C-3.15054687 3.45078125 -2.42609375 2.6515625 -1.6796875 1.828125 C-0.84824219 0.92320312 -0.84824219 0.92320312 0 0 Z " fill="#3B4856" transform="translate(322,146)"/>
<path d="M0 0 C-2.499964 2.499964 -4.71922154 3.67507024 -8 5 C-11.375 4.6875 -11.375 4.6875 -14 4 C-10.71830109 -0.24690447 -5.03017099 -2.0120684 0 0 Z " fill="#173D68" transform="translate(86,83)"/>
<path d="M0 0 C0.33 0.99 0.66 1.98 1 3 C-0.328125 4.9375 -0.328125 4.9375 -2.25 7 C-2.87390625 7.680625 -3.4978125 8.36125 -4.140625 9.0625 C-5.06101562 10.0215625 -5.06101562 10.0215625 -6 11 C-6.51691406 11.57363281 -7.03382813 12.14726562 -7.56640625 12.73828125 C-9 14 -9 14 -11.6875 14.1875 C-12.450625 14.125625 -13.21375 14.06375 -14 14 C-13.41347656 13.74992188 -12.82695312 13.49984375 -12.22265625 13.2421875 C-9.70584431 11.83560368 -8.29133799 10.32306294 -6.4375 8.125 C-5.85871094 7.44695312 -5.27992188 6.76890625 -4.68359375 6.0703125 C-3.06788799 4.08348175 -1.5200601 2.06062859 0 0 Z " fill="#C9CFD3" transform="translate(305,216)"/>
<path d="M0 0 C1.8871875 0.0309375 1.8871875 0.0309375 3.8125 0.0625 C3.8125 1.0525 3.8125 2.0425 3.8125 3.0625 C-0.85951205 4.26818053 -5.40246292 4.15632426 -10.1875 4.0625 C-7.08842497 0.66827497 -4.52992189 -0.07426101 0 0 Z " fill="#45B0BA" transform="translate(428.1875,76.9375)"/>
<path d="M0 0 C0.33 0.66 0.66 1.32 1 2 C3.02463255 2.65213292 3.02463255 2.65213292 5 3 C4.30132812 3.20496094 3.60265625 3.40992188 2.8828125 3.62109375 C1.97273437 3.89050781 1.06265625 4.15992188 0.125 4.4375 C-0.77992188 4.70433594 -1.68484375 4.97117188 -2.6171875 5.24609375 C-4.98275381 5.92613826 -4.98275381 5.92613826 -7 7 C-8.99960012 7.039992 -11.00047242 7.04346799 -13 7 C-11.75 5.4375 -11.75 5.4375 -10 4 C-7.8125 4.3125 -7.8125 4.3125 -6 5 C-6 4.34 -6 3.68 -6 3 C-4.02 2.67 -2.04 2.34 0 2 C0 1.34 0 0.68 0 0 Z " fill="#27304C" transform="translate(163,249)"/>
<path d="M0 0 C1 3 1 3 1 7 C0.01 7.495 0.01 7.495 -1 8 C-0.938125 8.94875 -0.87625 9.8975 -0.8125 10.875 C-0.874375 11.90625 -0.93625 12.9375 -1 14 C-1.99 14.66 -2.98 15.32 -4 16 C-4 13.36 -4 10.72 -4 8 C-3.34 8 -2.68 8 -2 8 C-2.04125 7.05125 -2.0825 6.1025 -2.125 5.125 C-2 2 -2 2 0 0 Z " fill="#052548" transform="translate(348,232)"/>
<path d="M0 0 C0.66 0.33 1.32 0.66 2 1 C2 4 2 4 1 5.6875 C-2.21371429 7.7965 -5.21503429 7.18614585 -9 7 C-6.3765992 4.08511023 -3.28183606 2.11496102 0 0 Z " fill="#2F5278" transform="translate(70,87)"/>
<path d="M0 0 C0.66 0 1.32 0 2 0 C0.87288136 13.94067797 0.87288136 13.94067797 -1 20 C-1.66 20.33 -2.32 20.66 -3 21 C-2.67 16.71 -2.34 12.42 -2 8 C-1.34 8 -0.68 8 0 8 C0 5.36 0 2.72 0 0 Z " fill="#3B778D" transform="translate(421,120)"/>
<path d="M0 0 C0.66 0 1.32 0 2 0 C1.75 2.875 1.75 2.875 1 6 C-0.8125 7.125 -0.8125 7.125 -3 8 C-3.70125 8.70125 -4.4025 9.4025 -5.125 10.125 C-5.74375 10.74375 -6.3625 11.3625 -7 12 C-7.66 12 -8.32 12 -9 12 C-7.32598022 8.04322598 -4.86850715 5.15535787 -2 2 C-1.34 2 -0.68 2 0 2 C0 1.34 0 0.68 0 0 Z " fill="#CFD6DB" transform="translate(326,193)"/>
<path d="M0 0 C1.98 0.66 3.96 1.32 6 2 C4.375 3.5625 4.375 3.5625 2 5 C-1.01733125 4.7586135 -3.29283042 4.35358479 -6 3 C-6 2.34 -6 1.68 -6 1 C-3.03 1.495 -3.03 1.495 0 2 C0 1.34 0 0.68 0 0 Z " fill="#061237" transform="translate(70,249)"/>
<path d="M0 0 C-0.99 0.33 -1.98 0.66 -3 1 C-3 1.66 -3 2.32 -3 3 C-5.3125 5.1875 -5.3125 5.1875 -8 7 C-8.99 6.67 -9.98 6.34 -11 6 C-11 5.01 -11 4.02 -11 3 C-9.68 3 -8.36 3 -7 3 C-6.67 2.01 -6.34 1.02 -6 0 C-3 -1 -3 -1 0 0 Z " fill="#0F1835" transform="translate(219,221)"/>
<path d="M0 0 C1 3 1 3 -0.125 6 C-2.13355849 9.21369359 -3.552699 10.49733034 -7 12 C-7.66 11.67 -8.32 11.34 -9 11 C-6.03 7.37 -3.06 3.74 0 0 Z " fill="#065D76" transform="translate(375,142)"/>
<path d="M0 0 C1.485 0.99 1.485 0.99 3 2 C3.2487793 4.43017578 3.2487793 4.43017578 3.07421875 7.4453125 C3.01943359 8.52167969 2.96464844 9.59804687 2.90820312 10.70703125 C2.83537109 11.83496094 2.76253906 12.96289062 2.6875 14.125 C2.62626953 15.26066406 2.56503906 16.39632812 2.50195312 17.56640625 C2.3483421 20.37866961 2.18044528 23.18935144 2 26 C1.67 26 1.34 26 1 26 C0.67 17.42 0.34 8.84 0 0 Z " fill="#828892" transform="translate(263,99)"/>
<path d="M0 0 C0.33 1.32 0.66 2.64 1 4 C-2 6 -2 6 -6 6 C-6 4.35 -6 2.7 -6 1 C-3 0 -3 0 0 0 Z " fill="#08122E" transform="translate(199,232)"/>
<path d="M0 0 C2 2 2 2 2.23046875 4.3203125 C2.14403514 9.96206989 1.84244468 15.41880402 1 21 C0.67 21 0.34 21 0 21 C0.02320313 20.02417969 0.04640625 19.04835937 0.0703125 18.04296875 C0.08835938 16.77066406 0.10640625 15.49835938 0.125 14.1875 C0.14820313 12.92292969 0.17140625 11.65835938 0.1953125 10.35546875 C0.27581918 6.8661976 0.27581918 6.8661976 -2 4 C-1.34 2.68 -0.68 1.36 0 0 Z " fill="#3B4754" transform="translate(252,139)"/>
<path d="M0 0 C0.99 0.33 1.98 0.66 3 1 C3.33 1.99 3.66 2.98 4 4 C3.34 4 2.68 4 2 4 C2.33 5.32 2.66 6.64 3 8 C1.35 7.67 -0.3 7.34 -2 7 C-1.125 1.125 -1.125 1.125 0 0 Z " fill="#02133A" transform="translate(74,231)"/>
<path d="M0 0 C1.02971945 4.1188778 0.81926586 6.15456121 0.0625 10.25 C-0.13214844 11.32765625 -0.32679687 12.4053125 -0.52734375 13.515625 C-0.68332031 14.33546875 -0.83929688 15.1553125 -1 16 C-3.9765625 13.3359375 -3.9765625 13.3359375 -4.1875 10.3125 C-4.125625 9.549375 -4.06375 8.78625 -4 8 C-3.34 8 -2.68 8 -2 8 C-1.34 5.36 -0.68 2.72 0 0 Z " fill="#0B2142" transform="translate(63,160)"/>
<path d="M0 0 C3.3 0.66 6.6 1.32 10 2 C6.09567131 3.95216435 3.27786748 4.50639991 -1 5 C-1.66 4.01 -2.32 3.02 -3 2 C-2.01 2 -1.02 2 0 2 C0 1.34 0 0.68 0 0 Z " fill="#14396A" transform="translate(134,82)"/>
<path d="M0 0 C1.21236328 0.01353516 1.21236328 0.01353516 2.44921875 0.02734375 C3.37154297 0.04474609 3.37154297 0.04474609 4.3125 0.0625 C2.53805028 2.30856427 1.72897515 3.01331002 -1.16796875 3.35546875 C-2.06128906 3.32066406 -2.95460937 3.28585938 -3.875 3.25 C-4.77605469 3.22292969 -5.67710937 3.19585937 -6.60546875 3.16796875 C-7.63607422 3.11576172 -7.63607422 3.11576172 -8.6875 3.0625 C-6.88341097 -0.54567807 -3.60175697 -0.05219938 0 0 Z " fill="#E5E9EF" transform="translate(150.6875,240.9375)"/>
<path d="M0 0 C3 3.75 3 3.75 3 6 C2.195625 6.12375 1.39125 6.2475 0.5625 6.375 C-0.7059375 6.684375 -0.7059375 6.684375 -2 7 C-2.33 7.66 -2.66 8.32 -3 9 C-3.66 8.67 -4.32 8.34 -5 8 C-3.62845496 5.04590299 -2.01136276 2.55991624 0 0 Z " fill="#25456C" transform="translate(43,109)"/>
<path d="M0 0 C-6.32453722 3.68931338 -12.87262743 4.25454902 -20 4 C-20 3.67 -20 3.34 -20 3 C-17.79344925 2.49219106 -15.58466395 1.99408635 -13.375 1.5 C-11.53035156 1.08234375 -11.53035156 1.08234375 -9.6484375 0.65625 C-6.32847772 0.05908379 -3.36091549 -0.12409534 0 0 Z " fill="#B8EFF4" transform="translate(396,83)"/>
<path d="M0 0 C2 4 2 4 2 6 C1.34 6 0.68 6 0 6 C-0.2475 6.639375 -0.495 7.27875 -0.75 7.9375 C-2 10 -2 10 -6 11 C-4.02 7.37 -2.04 3.74 0 0 Z " fill="#414954" transform="translate(190,178)"/>
<path d="M0 0 C1.27351308 2.54702616 0.80191925 3.4282945 0.0625 6.125 C-0.13214844 6.84945312 -0.32679688 7.57390625 -0.52734375 8.3203125 C-0.76130859 9.15175781 -0.76130859 9.15175781 -1 10 C-1.33 9.01 -1.66 8.02 -2 7 C-5.16666667 8.83333333 -5.16666667 8.83333333 -7 12 C-6.67 10.02 -6.34 8.04 -6 6 C-5.34 6 -4.68 6 -4 6 C-3.67 5.01 -3.34 4.02 -3 3 C-2.34 3 -1.68 3 -1 3 C-0.67 2.01 -0.34 1.02 0 0 Z " fill="#4CB8C5" transform="translate(361,156)"/>
<path d="M0 0 C9.41002278 -0.3690205 9.41002278 -0.3690205 14 2 C14 2.66 14 3.32 14 4 C9.03083364 3.48594831 4.70973649 2.76615118 0 1 C0 0.67 0 0.34 0 0 Z " fill="#3F4861" transform="translate(66,253)"/>
<path d="M0 0 C0.99 0.99 1.98 1.98 3 3 C2.34 4.65 1.68 6.3 1 8 C-1 6.75 -1 6.75 -3 5 C-3 3.68 -3 2.36 -3 1 C-2.01 0.67 -1.02 0.34 0 0 Z " fill="#1E2A4E" transform="translate(38,230)"/>
<path d="M0 0 C0.66 0.33 1.32 0.66 2 1 C1.88601335 2.62580966 1.75844341 4.25067157 1.625 5.875 C1.52058594 7.23238281 1.52058594 7.23238281 1.4140625 8.6171875 C1 11 1 11 -1 13 C-2.42857143 4.57142857 -2.42857143 4.57142857 0 0 Z " fill="#0E2B52" transform="translate(67,141)"/>
<path d="M0 0 C1.32 0 2.64 0 4 0 C6.25 2.5 6.25 2.5 8 5 C5.66682784 5.77772405 3.38564077 6.42415568 1 7 C1.33 5.35 1.66 3.7 2 2 C1.01 1.67 0.02 1.34 -1 1 C-0.67 0.67 -0.34 0.34 0 0 Z " fill="#334455" transform="translate(240,102)"/>
<path d="M0 0 C0.33 1.32 0.66 2.64 1 4 C-0.25 5.75 -0.25 5.75 -2 7 C-2.99 7 -3.98 7 -5 7 C-5.33 7.99 -5.66 8.98 -6 10 C-6.66 9.67 -7.32 9.34 -8 9 C-5.36 6.03 -2.72 3.06 0 0 Z " fill="#58636E" transform="translate(367,96)"/>
<path d="M0 0 C-2.22825644 2.22825644 -3.65761628 2.69239369 -6.625 3.625 C-7.44226563 3.88539062 -8.25953125 4.14578125 -9.1015625 4.4140625 C-9.72804688 4.60742188 -10.35453125 4.80078125 -11 5 C-11 4.01 -11 3.02 -11 2 C-7.17010894 0.19769832 -4.21878192 -0.19622241 0 0 Z " fill="#12345F" transform="translate(133,87)"/>
<path d="M0 0 C0.33 0.66 0.66 1.32 1 2 C1.66 2 2.32 2 3 2 C4.06775224 3.96466413 5.06553465 5.96855359 6 8 C5.67 8.66 5.34 9.32 5 10 C4.34 8.68 3.68 7.36 3 6 C1.68 6 0.36 6 -1 6 C-1.33 4.35 -1.66 2.7 -2 1 C-1.34 0.67 -0.68 0.34 0 0 Z " fill="#D8DDDF" transform="translate(282,216)"/>
<path d="M0 0 C0.99 0 1.98 0 3 0 C4.1577506 3.47325181 4.06866652 6.36067448 4 10 C3.01 10.33 2.02 10.66 1 11 C0.67 7.37 0.34 3.74 0 0 Z " fill="#00143A" transform="translate(18,192)"/>
<path d="M0 0 C0.66 0 1.32 0 2 0 C2.33 1.65 2.66 3.3 3 5 C2.2575 5.12375 1.515 5.2475 0.75 5.375 C-1.81448542 5.9578376 -3.69166512 6.78664449 -6 8 C-5.04956626 6.66102417 -4.08940853 5.32894573 -3.125 4 C-2.59132813 3.2575 -2.05765625 2.515 -1.5078125 1.75 C-1.01023437 1.1725 -0.51265625 0.595 0 0 Z " fill="#BCD3D9" transform="translate(347,170)"/>
<path d="M0 0 C0.33 0 0.66 0 1 0 C1.17855281 5.17803162 1.07828238 9.15067444 -1 14 C-1.66 14.66 -2.32 15.32 -3 16 C-2.152874 10.63486869 -1.08318169 5.3212615 0 0 Z " fill="#C9E4ED" transform="translate(423,120)"/>
<path d="M0 0 C0.66 0 1.32 0 2 0 C0.60746468 3.48133831 -0.63176216 4.47886033 -4 6 C-4.33 6.66 -4.66 7.32 -5 8 C-5.99 7.67 -6.98 7.34 -8 7 C-7.34 7 -6.68 7 -6 7 C-5.67 5.35 -5.34 3.7 -5 2 C-4.360625 1.855625 -3.72125 1.71125 -3.0625 1.5625 C-1.02454854 1.18992819 -1.02454854 1.18992819 0 0 Z " fill="#072F5F" transform="translate(61,96)"/>
<path d="M0 0 C1.62723299 0.45034123 3.25173664 0.91055354 4.875 1.375 C5.77992188 1.63023438 6.68484375 1.88546875 7.6171875 2.1484375 C10 3 10 3 12 5 C7.03083364 4.48594831 2.70973649 3.76615118 -2 2 C-1.34 1.34 -0.68 0.68 0 0 Z " fill="#676E86" transform="translate(238,82)"/>
<path d="M0 0 C0.33 0.66 0.66 1.32 1 2 C-1.88211302 2.96070434 -3.69850044 3.10581883 -6.6875 3.0625 C-7.89986328 3.04896484 -7.89986328 3.04896484 -9.13671875 3.03515625 C-10.05904297 3.01775391 -10.05904297 3.01775391 -11 3 C-7.63114177 -0.36885823 -4.54278442 -0.10095076 0 0 Z " fill="#2C4973" transform="translate(115,71)"/>
<path d="M0 0 C-6.27692308 4.06153846 -6.27692308 4.06153846 -9.9375 3.75 C-10.618125 3.5025 -11.29875 3.255 -12 3 C-4.82142857 -1.78571429 -4.82142857 -1.78571429 0 0 Z " fill="#707A8C" transform="translate(182,233)"/>
<path d="M0 0 C1.125 1.5 1.125 1.5 2 4 C1.57598348 6.7773082 0.81108065 9.29639783 0 12 C-0.66 12 -1.32 12 -2 12 C-1 3.42857143 -1 3.42857143 0 0 Z M2 2 C2.66 2 3.32 2 4 2 C3.67 2.99 3.34 3.98 3 5 C2.67 4.01 2.34 3.02 2 2 Z " fill="#354E68" transform="translate(346,228)"/>
<path d="M0 0 C1 2 1 2 0.25 4.5 C-1 7 -1 7 -4 9 C-4.66 8.34 -5.32 7.68 -6 7 C-5.67 6.34 -5.34 5.68 -5 5 C-4.34 5 -3.68 5 -3 5 C-3 4.34 -3 3.68 -3 3 C-2.34 3 -1.68 3 -1 3 C-0.67 2.01 -0.34 1.02 0 0 Z " fill="#164960" transform="translate(351,161)"/>
<path d="M0 0 C0.33 0 0.66 0 1 0 C1.33 1.98 1.66 3.96 2 6 C1.34 6 0.68 6 0 6 C0 8.64 0 11.28 0 14 C-0.99 14.33 -1.98 14.66 -3 15 C-2.01 10.05 -1.02 5.1 0 0 Z " fill="#505B66" transform="translate(202,144)"/>
<path d="M0 0 C0.66 0 1.32 0 2 0 C2.36625971 4.51720311 2.36625971 4.51720311 0.625 6.8125 C-1 8 -1 8 -3 8 C-1.125 1.125 -1.125 1.125 0 0 Z " fill="#162F55" transform="translate(29,130)"/>
<path d="M0 0 C2.15377564 2.62198774 3.40072174 4.64404172 4 8 C3.01 7.67 2.02 7.34 1 7 C1 7.66 1 8.32 1 9 C0.34 9 -0.32 9 -1 9 C-0.67 6.03 -0.34 3.06 0 0 Z " fill="#45515F" transform="translate(268,106)"/>
<path d="M0 0 C-2.76452033 1.38226016 -5.0461363 1.09525387 -8.125 1.0625 C-9.22070312 1.05347656 -10.31640625 1.04445313 -11.4453125 1.03515625 C-12.70988281 1.01775391 -12.70988281 1.01775391 -14 1 C-9.1576691 -1.59676646 -4.81645661 -3.21097108 0 0 Z " fill="#08112F" transform="translate(138,258)"/>
<path d="M0 0 C0.66 0 1.32 0 2 0 C2.75241109 3.65456815 3.40049704 7.31733897 4 11 C-0.62452592 5.62958281 -0.62452592 5.62958281 -1 2 C-0.67 1.34 -0.34 0.68 0 0 Z " fill="#2D3843" transform="translate(269,186)"/>
<path d="M0 0 C2.79872437 2.52788007 4.45773019 4.20411134 5 8 C4.01 8.66 3.02 9.32 2 10 C2 8.35 2 6.7 2 5 C1.01 4.67 0.02 4.34 -1 4 C-0.67 2.68 -0.34 1.36 0 0 Z " fill="#34404E" transform="translate(294,154)"/>
<path d="M0 0 C2 3 2 3 1.625 6.1875 C1.41875 7.115625 1.2125 8.04375 1 9 C0.34 8.67 -0.32 8.34 -1 8 C-1.66 8.99 -2.32 9.98 -3 11 C-2.53199289 6.94393835 -2.12046792 3.53411321 0 0 Z " fill="#405575" transform="translate(23,142)"/>
<path d="M0 0 C0.33 0 0.66 0 1 0 C1 1.98 1 3.96 1 6 C0.34 6 -0.32 6 -1 6 C-1.33 6.66 -1.66 7.32 -2 8 C-2.99 7.01 -3.98 6.02 -5 5 C-4.34 5 -3.68 5 -3 5 C-2.5359375 4.0409375 -2.5359375 4.0409375 -2.0625 3.0625 C-1 1 -1 1 0 0 Z " fill="#066281" transform="translate(422,114)"/>
<path d="M0 0 C-3.40431947 2.26954631 -5.16524202 2.36549949 -9.1875 2.625 C-10.27417969 2.69976562 -11.36085937 2.77453125 -12.48046875 2.8515625 C-13.31191406 2.90054688 -14.14335937 2.94953125 -15 3 C-12.41464321 1.27642881 -10.96188386 0.55264982 -8.0625 -0.1875 C-7.39347656 -0.36667969 -6.72445312 -0.54585938 -6.03515625 -0.73046875 C-3.75319112 -1.03268678 -2.17973341 -0.68756692 0 0 Z " fill="#C5D4E3" transform="translate(148,85)"/>
<path d="M0 0 C2.97 0.495 2.97 0.495 6 1 C3.97803833 3.02196167 2.74135514 3.67551358 0.125 4.6875 C-0.55304688 4.95949219 -1.23109375 5.23148437 -1.9296875 5.51171875 C-4.31107782 6.07336741 -5.70430191 5.76694846 -8 5 C-7.05125 4.731875 -6.1025 4.46375 -5.125 4.1875 C-1.74732727 3.25013412 -1.74732727 3.25013412 0 0 Z " fill="#9AAEC4" transform="translate(98,72)"/>
<path d="M0 0 C0.33 0.66 0.66 1.32 1 2 C-1.66666667 4.66666667 -4.33333333 7.33333333 -7 10 C-7.66 9.67 -8.32 9.34 -9 9 C-8.06725891 7.87105124 -7.12859878 6.74699124 -6.1875 5.625 C-5.66542969 4.99851562 -5.14335938 4.37203125 -4.60546875 3.7265625 C-3 2 -3 2 0 0 Z " fill="#CCDBE7" transform="translate(97,108)"/>
<path d="M0 0 C2.8125 -0.3125 2.8125 -0.3125 6 0 C7.875 2.5 7.875 2.5 9 5 C4.98525763 5 3.18024863 3.33218233 0 1 C0 0.67 0 0.34 0 0 Z " fill="#313D5A" transform="translate(39,238)"/>
<path d="M0 0 C0.66 0 1.32 0 2 0 C1.34 2.97 0.68 5.94 0 9 C-0.33 8.01 -0.66 7.02 -1 6 C-1.66 6 -2.32 6 -3 6 C-2 4 -1 2 0 0 Z " fill="#102136" transform="translate(231,199)"/>
<path d="M0 0 C1.65 0 3.3 0 5 0 C2.6875 2.5 2.6875 2.5 0 5 C-0.99 5 -1.98 5 -3 5 C-2.67 4.01 -2.34 3.02 -2 2 C-1.34 2 -0.68 2 0 2 C0 1.34 0 0.68 0 0 Z " fill="#283A4B" transform="translate(339,174)"/>
<path d="M0 0 C1.32 0.33 2.64 0.66 4 1 C3.1875 2.9375 3.1875 2.9375 2 5 C1.01 5.33 0.02 5.66 -1 6 C-1.33 5.01 -1.66 4.02 -2 3 C-1.34 2.01 -0.68 1.02 0 0 Z " fill="#1B2F3F" transform="translate(343,168)"/>
<path d="M0 0 C2.72426311 2.35277269 3.8141763 4.62496331 5 8 C3.68 7.67 2.36 7.34 1 7 C0 2.25 0 2.25 0 0 Z " fill="#4F5A66" transform="translate(289,144)"/>
<path d="M0 0 C0.99 1.32 1.98 2.64 3 4 C-0.01031744 4.93423645 -0.86650268 5.04449911 -4 4 C-2.68 2.68 -1.36 1.36 0 0 Z " fill="#082D5B" transform="translate(47,107)"/>
<path d="M0 0 C0.8723412 2.99480917 1.10829766 5.63575911 1.0625 8.75 C1.05347656 9.54921875 1.04445313 10.3484375 1.03515625 11.171875 C1.01775391 12.07679688 1.01775391 12.07679688 1 13 C0.34 13 -0.32 13 -1 13 C-1.33 13.66 -1.66 14.32 -2 15 C-1.85879286 13.06215735 -1.71187127 11.12473045 -1.5625 9.1875 C-1.48128906 8.10855469 -1.40007812 7.02960938 -1.31640625 5.91796875 C-1 3 -1 3 0 0 Z " fill="#4F7288" transform="translate(357,173)"/>
<path d="M0 0 C0.99 0 1.98 0 3 0 C3.33 0.66 3.66 1.32 4 2 C3.67 2.66 3.34 3.32 3 4 C2.34 4 1.68 4 1 4 C0.34 5.32 -0.32 6.64 -1 8 C-2 6 -2 6 -1.0625 2.875 C-0.5365625 1.451875 -0.5365625 1.451875 0 0 Z " fill="#24BDC8" transform="translate(354,158)"/>
<path d="M0 0 C0.33 0.66 0.66 1.32 1 2 C1.66 2 2.32 2 3 2 C2.67 3.65 2.34 5.3 2 7 C0.68 7.33 -0.64 7.66 -2 8 C-1.34 5.36 -0.68 2.72 0 0 Z " fill="#D0DCE3" transform="translate(69,146)"/>
<path d="M0 0 C0.66 0.33 1.32 0.66 2 1 C0.515 6.445 0.515 6.445 -1 12 C-1.33 12 -1.66 12 -2 12 C-2.33 9.36 -2.66 6.72 -3 4 C-2.01 4 -1.02 4 0 4 C0 2.68 0 1.36 0 0 Z " fill="#1B4759" transform="translate(359,132)"/>
<path d="M0 0 C0.66 0 1.32 0 2 0 C1.25 7.75 1.25 7.75 -1 10 C-1.125 2.25 -1.125 2.25 0 0 Z " fill="#20465C" transform="translate(364,114)"/>
<path d="M0 0 C1.98 0 3.96 0 6 0 C4.02579865 2.52259061 3.03254358 2.9929808 -0.1875 3.6875 C-1.5796875 3.8421875 -1.5796875 3.8421875 -3 4 C-3 3.34 -3 2.68 -3 2 C-2.01 2 -1.02 2 0 2 C0 1.34 0 0.68 0 0 Z " fill="#0E183A" transform="translate(152,243)"/>
<path d="M0 0 C2.27521866 2.16687491 4.15794162 4.45620509 6 7 C4.68 7.33 3.36 7.66 2 8 C0.23537317 4.91190305 0 3.76687864 0 0 Z " fill="#1C2A36" transform="translate(273,194)"/>
<path d="M0 0 C0.33 0.99 0.66 1.98 1 3 C-0.3125 5.1875 -0.3125 5.1875 -2 7 C-2.66 7 -3.32 7 -4 7 C-4.33 5.68 -4.66 4.36 -5 3 C-3.35 2.01 -1.7 1.02 0 0 Z " fill="#D7DDE3" transform="translate(306,161)"/>
<path d="M0 0 C0.33 0 0.66 0 1 0 C1.25 2.75 1.25 2.75 1 6 C-1 8.375 -1 8.375 -3 10 C-2.49287967 6.28111761 -1.88391785 3.26545761 0 0 Z " fill="#2FA9B1" transform="translate(356,150)"/>
<path d="M0 0 C1 3 1 3 0.0625 5.1875 C-0.4634375 6.0846875 -0.4634375 6.0846875 -1 7 C-2.32 6.34 -3.64 5.68 -5 5 C-3.35 3.35 -1.7 1.7 0 0 Z " fill="#495868" transform="translate(341,125)"/>
<path d="M0 0 C0.66 0 1.32 0 2 0 C1.375 1.875 1.375 1.875 0 4 C-3.125 5.25 -3.125 5.25 -6 6 C-4.71034824 4.62437146 -3.37310707 3.29233607 -2 2 C-1.34 2 -0.68 2 0 2 C0 1.34 0 0.68 0 0 Z M-3 5 C-2.34 5.66 -1.68 6.32 -1 7 C-1.66 7 -2.32 7 -3 7 C-3 6.34 -3 5.68 -3 5 Z " fill="#C7D5E2" transform="translate(104,102)"/>
<path d="M0 0 C1.32 0.99 2.64 1.98 4 3 C3.34 4.32 2.68 5.64 2 7 C0.4375 5.1875 0.4375 5.1875 -1 3 C-0.67 2.01 -0.34 1.02 0 0 Z " fill="#EAEEF0" transform="translate(75,225)"/>
<path d="M0 0 C0.99 0.33 1.98 0.66 3 1 C3 1.33 3 1.66 3 2 C3.66 2 4.32 2 5 2 C5 2.66 5 3.32 5 4 C3.1875 4.6875 3.1875 4.6875 1 5 C-0.75 3.5625 -0.75 3.5625 -2 2 C-1.34 1.34 -0.68 0.68 0 0 Z " fill="#101C26" transform="translate(155,218)"/>
<path d="M0 0 C0 2.62113708 -0.31292445 4.50935112 -1 7 C-2.65 7.33 -4.3 7.66 -6 8 C-4.02 5.36 -2.04 2.72 0 0 Z " fill="#5F6A78" transform="translate(334,132)"/>
<path d="M0 0 C2.31 0 4.62 0 7 0 C7.33 1.65 7.66 3.3 8 5 C4.62496331 3.8141763 2.35277269 2.72426311 0 0 Z " fill="#515F6C" transform="translate(184,97)"/>
<path d="M0 0 C1.98 0.495 1.98 0.495 4 1 C3.67 1.33 3.34 1.66 3 2 C5.97 2.495 5.97 2.495 9 3 C9 3.33 9 3.66 9 4 C2.9453125 4.1953125 2.9453125 4.1953125 1 4 C0.34 3.34 -0.32 2.68 -1 2 C-0.67 1.34 -0.34 0.68 0 0 Z " fill="#203344" transform="translate(164,89)"/>
<path d="M0 0 C4.95 0.99 4.95 0.99 10 2 C9.01 2.66 8.02 3.32 7 4 C3.3125 3.125 3.3125 3.125 0 2 C0 1.34 0 0.68 0 0 Z " fill="#193B67" transform="translate(206,72)"/>
<path d="M0 0 C0.66 1.32 1.32 2.64 2 4 C0.68 4.33 -0.64 4.66 -2 5 C-2 5.99 -2 6.98 -2 8 C-2.66 8 -3.32 8 -4 8 C-2.25 2.25 -2.25 2.25 0 0 Z " fill="#BDCBD8" transform="translate(78,130)"/>
<path d="M0 0 C0.66 1.32 1.32 2.64 2 4 C1.34 4 0.68 4 0 4 C-0.33 4.66 -0.66 5.32 -1 6 C-1.99 6.33 -2.98 6.66 -4 7 C-2.79618552 4.50638429 -1.54571278 2.31856917 0 0 Z " fill="#2F4B6D" transform="translate(37,117)"/>
<path d="M0 0 C0.66 0 1.32 0 2 0 C2.33 0.66 2.66 1.32 3 2 C3.66 1.67 4.32 1.34 5 1 C4.34 2.32 3.68 3.64 3 5 C1.68 4.67 0.36 4.34 -1 4 C-0.67 2.68 -0.34 1.36 0 0 Z " fill="#25374B" transform="translate(193,97)"/>
<path d="M0 0 C2.31 0.33 4.62 0.66 7 1 C5.25 3.0625 5.25 3.0625 3 5 C0.75 4.75 0.75 4.75 -1 4 C-0.34 4 0.32 4 1 4 C0.67 2.68 0.34 1.36 0 0 Z " fill="#213F69" transform="translate(217,75)"/>
</svg>
